<svg width="261" height="261" viewBox="0 0 261 261" fill="none" xmlns="http://www.w3.org/2000/svg">
<g clip-path="url(#clip0_943_46)">
<path d="M130.481 13.7349C194.852 13.7349 247.23 66.12 247.23 130.5C247.23 194.88 194.852 247.265 130.481 247.265C66.1106 247.265 13.7329 194.88 13.7329 130.5C13.7329 66.12 66.1106 13.7349 130.481 13.7349ZM130.481 0C58.4113 0 0 58.4196 0 130.5C0 202.58 58.4113 261 130.481 261C202.552 261 260.963 202.58 260.963 130.5C261 58.4196 202.552 0 130.481 0Z" fill="url(#paint0_linear_943_46)"/>
<path d="M130.741 28.8395C186.931 28.8395 232.646 74.5608 232.646 130.722C232.646 186.92 186.931 232.605 130.741 232.605C74.5503 232.605 28.8355 186.883 28.8355 130.722C28.8355 74.5608 74.5503 28.8395 130.741 28.8395ZM130.741 13.7719C66.1476 13.7719 13.807 66.1199 13.807 130.722C13.807 195.324 66.1846 247.672 130.741 247.672C195.334 247.672 247.674 195.324 247.674 130.722C247.674 66.157 195.334 13.7719 130.741 13.7719Z" fill="url(#paint1_radial_943_46)"/>
<mask id="mask0_943_46" style="mask-type:alpha" maskUnits="userSpaceOnUse" x="-21" y="-24" width="313" height="313">
<path d="M135.442 -23.0272V132.832L108.383 -20.6578L135.442 -23.0272Z" fill="white"/>
<path d="M108.383 -20.6581L135.442 132.832L82.1385 -13.624L108.383 -20.6581Z" fill="white"/>
<path d="M82.1386 -13.6237L135.442 132.833L57.5229 -2.14706L82.1386 -13.6237Z" fill="white"/>
<path d="M57.5229 -2.14746L135.442 132.832L35.2393 13.4385L57.5229 -2.14746Z" fill="white"/>
<path d="M35.2393 13.4391L135.442 132.833L16.0279 32.6531L35.2393 13.4391Z" fill="white"/>
<path d="M16.0279 32.653L135.442 132.833L0.444191 54.9027L16.0279 32.653Z" fill="white"/>
<path d="M0.44419 54.9028L135.442 132.833L-11.0308 79.5219L0.44419 54.9028Z" fill="white"/>
<path d="M-11.0308 79.5216L135.442 132.832L-18.0638 105.77L-11.0308 79.5216Z" fill="white"/>
<path d="M-18.0638 105.77L135.442 132.833H-20.4328L-18.0638 105.77Z" fill="white"/>
<path d="M-20.4328 132.833H135.442L-18.0638 159.932L-20.4328 132.833Z" fill="white"/>
<path d="M-18.0638 159.932L135.442 132.833L-11.0308 186.18L-18.0638 159.932Z" fill="white"/>
<path d="M-11.0308 186.18L135.442 132.833L0.44419 210.799L-11.0308 186.18Z" fill="white"/>
<path d="M0.444191 210.8L135.442 132.833L16.0279 233.049L0.444191 210.8Z" fill="white"/>
<path d="M16.0279 233.049L135.442 132.833L35.2393 252.263L16.0279 233.049Z" fill="white"/>
<path d="M35.2393 252.263L135.442 132.833L57.5229 267.849L35.2393 252.263Z" fill="white"/>
<path d="M57.5229 267.849L135.442 132.833L82.1386 279.326L57.5229 267.849Z" fill="white"/>
<path d="M82.1385 279.326L135.442 132.833L108.383 286.36L82.1385 279.326Z" fill="white"/>
<path d="M108.383 286.36L135.442 132.833V288.729L108.383 286.36Z" fill="white"/>
<path d="M135.442 288.729V132.833L162.5 286.36L135.442 288.729Z" fill="white"/>
<path d="M162.5 286.36L135.442 132.833L188.745 279.326L162.5 286.36Z" fill="white"/>
<path d="M188.745 279.326L135.442 132.833L213.36 267.849L188.745 279.326Z" fill="white"/>
<path d="M213.36 267.849L135.442 132.833L235.607 252.263L213.36 267.849Z" fill="white"/>
<path d="M235.607 252.263L135.442 132.833L254.818 233.049L235.607 252.263Z" fill="white"/>
<path d="M254.818 233.049L135.442 132.833L270.402 210.8L254.818 233.049Z" fill="white"/>
<path d="M270.402 210.799L135.442 132.833L281.877 186.18L270.402 210.799Z" fill="white"/>
<path d="M281.877 186.18L135.442 132.833L288.91 159.932L281.877 186.18Z" fill="white"/>
<path d="M288.91 159.932L135.442 132.833H291.279L288.91 159.932Z" fill="white"/>
<path d="M291.279 132.833H135.442L288.91 105.77L291.279 132.833Z" fill="white"/>
</mask>
<g mask="url(#mask0_943_46)">
<path d="M130.741 28.8395C186.931 28.8395 232.646 74.5608 232.646 130.722C232.646 186.92 186.931 232.605 130.741 232.605C74.5503 232.605 28.8355 186.883 28.8355 130.722C28.8355 74.5608 74.5503 28.8395 130.741 28.8395ZM130.741 13.7719C66.1476 13.7719 13.807 66.1199 13.807 130.722C13.807 195.324 66.1846 247.672 130.741 247.672C195.334 247.672 247.674 195.324 247.674 130.722C247.674 66.157 195.334 13.7719 130.741 13.7719Z" fill="#30932E"/>
<path d="M130.963 39.6499C181.304 39.6499 222.244 80.5955 222.244 130.944C222.244 181.293 181.304 222.239 130.963 222.239C80.6209 222.239 39.6812 181.293 39.6812 130.944C39.6812 80.6325 80.6209 39.6499 130.963 39.6499ZM130.963 28.9138C74.5873 28.9138 28.9095 74.598 28.9095 130.944C28.9095 187.291 74.5873 232.975 130.963 232.975C187.301 232.975 232.979 187.291 232.979 130.944C232.979 74.598 187.301 28.9138 130.963 28.9138Z" fill="url(#paint2_linear_943_46)"/>
</g>
<path d="M103.898 147H80.0859V141.844L91.0547 130.312C93.7578 127.234 95.1094 124.789 95.1094 122.977C95.1094 121.508 94.7891 120.391 94.1484 119.625C93.5078 118.859 92.5781 118.477 91.3594 118.477C90.1562 118.477 89.1797 118.992 88.4297 120.023C87.6797 121.039 87.3047 122.312 87.3047 123.844H79.3828C79.3828 121.75 79.9062 119.82 80.9531 118.055C82 116.273 83.4531 114.883 85.3125 113.883C87.1719 112.883 89.25 112.383 91.5469 112.383C95.2344 112.383 98.0703 113.234 100.055 114.938C102.055 116.641 103.055 119.086 103.055 122.273C103.055 123.617 102.805 124.93 102.305 126.211C101.805 127.477 101.023 128.812 99.9609 130.219C98.9141 131.609 97.2188 133.477 94.875 135.82L90.4688 140.906H103.898V147ZM110.032 130.312L112.118 112.875H132.063V119.016H118.539L117.766 125.789C118.328 125.461 119.063 125.172 119.969 124.922C120.891 124.672 121.789 124.547 122.664 124.547C126.055 124.547 128.657 125.555 130.469 127.57C132.297 129.57 133.211 132.383 133.211 136.008C133.211 138.195 132.719 140.18 131.735 141.961C130.766 143.727 129.399 145.086 127.633 146.039C125.868 146.992 123.782 147.469 121.375 147.469C119.235 147.469 117.227 147.031 115.352 146.156C113.477 145.266 112.008 144.055 110.946 142.523C109.883 140.977 109.36 139.234 109.375 137.297H117.297C117.375 138.547 117.774 139.539 118.493 140.273C119.211 141.008 120.157 141.375 121.328 141.375C123.985 141.375 125.313 139.406 125.313 135.469C125.313 131.828 123.688 130.008 120.438 130.008C118.594 130.008 117.219 130.602 116.313 131.789L110.032 130.312ZM162.735 133.055C162.735 137.664 161.696 141.219 159.618 143.719C157.555 146.219 154.641 147.469 150.876 147.469C147.079 147.469 144.141 146.211 142.063 143.695C139.985 141.18 138.946 137.633 138.946 133.055V126.82C138.946 122.211 139.977 118.656 142.04 116.156C144.118 113.656 147.048 112.406 150.829 112.406C154.61 112.406 157.54 113.664 159.618 116.18C161.696 118.695 162.735 122.25 162.735 126.844V133.055ZM154.837 125.812C154.837 123.359 154.516 121.531 153.876 120.328C153.235 119.109 152.219 118.5 150.829 118.5C149.469 118.5 148.477 119.062 147.852 120.188C147.243 121.312 146.915 123.016 146.868 125.297V134.016C146.868 136.562 147.188 138.43 147.829 139.617C148.469 140.789 149.485 141.375 150.876 141.375C152.219 141.375 153.212 140.805 153.852 139.664C154.493 138.508 154.821 136.703 154.837 134.25V125.812ZM182.884 127.641H190.876V134.414H182.884V143.578H175.501V134.414H167.485V127.641H175.501V118.734H182.884V127.641Z" fill="white"/>
<path d="M99.7969 176.879C99.4805 179.586 98.4785 181.678 96.791 183.154C95.1152 184.619 92.8828 185.352 90.0938 185.352C87.0703 185.352 84.6445 184.268 82.8164 182.1C81 179.932 80.0918 177.031 80.0918 173.398V170.938C80.0918 168.559 80.5137 166.467 81.3574 164.662C82.2129 162.857 83.4199 161.475 84.9785 160.514C86.5371 159.541 88.3418 159.055 90.3926 159.055C93.1113 159.055 95.291 159.816 96.9316 161.34C98.5723 162.852 99.5273 164.949 99.7969 167.633H96.4043C96.1113 165.594 95.4727 164.117 94.4883 163.203C93.5156 162.289 92.1504 161.832 90.3926 161.832C88.2363 161.832 86.543 162.629 85.3125 164.223C84.0938 165.816 83.4844 168.084 83.4844 171.025V173.504C83.4844 176.281 84.0645 178.49 85.2246 180.131C86.3848 181.771 88.0078 182.592 90.0938 182.592C91.9688 182.592 93.4043 182.17 94.4004 181.326C95.4082 180.471 96.0762 178.988 96.4043 176.879H99.7969ZM108.703 185H105.451V158H108.703V185ZM118.717 185H115.465V165.98H118.717V185ZM115.202 160.936C115.202 160.408 115.36 159.963 115.676 159.6C116.004 159.236 116.485 159.055 117.118 159.055C117.75 159.055 118.231 159.236 118.559 159.6C118.887 159.963 119.051 160.408 119.051 160.936C119.051 161.463 118.887 161.902 118.559 162.254C118.231 162.605 117.75 162.781 117.118 162.781C116.485 162.781 116.004 162.605 115.676 162.254C115.36 161.902 115.202 161.463 115.202 160.936ZM133.091 185.352C130.512 185.352 128.415 184.508 126.798 182.82C125.18 181.121 124.372 178.854 124.372 176.018V175.42C124.372 173.533 124.729 171.852 125.444 170.375C126.171 168.887 127.178 167.727 128.467 166.895C129.768 166.051 131.175 165.629 132.686 165.629C135.159 165.629 137.081 166.443 138.452 168.072C139.823 169.701 140.509 172.033 140.509 175.068V176.422H127.624C127.671 178.297 128.216 179.814 129.259 180.975C130.313 182.123 131.649 182.697 133.266 182.697C134.415 182.697 135.387 182.463 136.184 181.994C136.981 181.525 137.678 180.904 138.276 180.131L140.262 181.678C138.669 184.127 136.278 185.352 133.091 185.352ZM132.686 168.301C131.374 168.301 130.272 168.781 129.382 169.742C128.491 170.691 127.94 172.027 127.729 173.75H137.257V173.504C137.163 171.852 136.717 170.574 135.921 169.672C135.124 168.758 134.046 168.301 132.686 168.301ZM148.624 165.98L148.729 168.371C150.183 166.543 152.081 165.629 154.425 165.629C158.444 165.629 160.472 167.896 160.507 172.432V185H157.255V172.414C157.243 171.043 156.927 170.029 156.306 169.373C155.696 168.717 154.741 168.389 153.44 168.389C152.386 168.389 151.46 168.67 150.663 169.232C149.866 169.795 149.245 170.533 148.8 171.447V185H145.548V165.98H148.624ZM171.083 161.375V165.98H174.634V168.494H171.083V180.289C171.083 181.051 171.241 181.625 171.558 182.012C171.874 182.387 172.413 182.574 173.175 182.574C173.55 182.574 174.066 182.504 174.722 182.363V185C173.866 185.234 173.034 185.352 172.226 185.352C170.773 185.352 169.677 184.912 168.939 184.033C168.2 183.154 167.831 181.906 167.831 180.289V168.494H164.368V165.98H167.831V161.375H171.083ZM190.783 179.955C190.783 179.076 190.449 178.396 189.781 177.916C189.124 177.424 187.97 177.002 186.318 176.65C184.677 176.299 183.371 175.877 182.398 175.385C181.437 174.893 180.722 174.307 180.253 173.627C179.796 172.947 179.568 172.139 179.568 171.201C179.568 169.643 180.224 168.324 181.537 167.246C182.861 166.168 184.548 165.629 186.599 165.629C188.755 165.629 190.501 166.186 191.837 167.299C193.185 168.412 193.859 169.836 193.859 171.57H190.589C190.589 170.68 190.208 169.912 189.447 169.268C188.697 168.623 187.747 168.301 186.599 168.301C185.415 168.301 184.49 168.559 183.822 169.074C183.154 169.59 182.82 170.264 182.82 171.096C182.82 171.881 183.13 172.473 183.751 172.871C184.372 173.27 185.492 173.65 187.109 174.014C188.738 174.377 190.056 174.811 191.064 175.314C192.072 175.818 192.816 176.428 193.296 177.143C193.789 177.846 194.035 178.707 194.035 179.727C194.035 181.426 193.355 182.791 191.996 183.822C190.636 184.842 188.872 185.352 186.705 185.352C185.181 185.352 183.833 185.082 182.662 184.543C181.49 184.004 180.57 183.254 179.902 182.293C179.246 181.32 178.917 180.271 178.917 179.146H182.169C182.228 180.236 182.662 181.104 183.47 181.748C184.29 182.381 185.369 182.697 186.705 182.697C187.935 182.697 188.919 182.451 189.658 181.959C190.408 181.455 190.783 180.787 190.783 179.955Z" fill="#FFD600"/>
</g>
<defs>
<linearGradient id="paint0_linear_943_46" x1="46.853" y1="30.3275" x2="214.16" y2="230.655" gradientUnits="userSpaceOnUse">
<stop stop-color="#FFD600"/>
<stop offset="0.4347" stop-color="#DEDEDE"/>
<stop offset="0.7838" stop-color="#F6F6F6"/>
<stop offset="1" stop-color="white"/>
</linearGradient>
<radialGradient id="paint1_radial_943_46" cx="0" cy="0" r="1" gradientUnits="userSpaceOnUse" gradientTransform="translate(130.729 130.739) scale(116.945 116.961)">
<stop offset="0.8108" stop-color="#FFD600"/>
<stop offset="0.842" stop-color="#565656"/>
<stop offset="0.8594" stop-color="#5E5E5E"/>
<stop offset="0.8733" stop-color="#6C6C6C"/>
<stop offset="0.8855" stop-color="#808080"/>
<stop offset="0.8965" stop-color="#999999"/>
<stop offset="0.9066" stop-color="#B9B9B9"/>
<stop offset="0.9159" stop-color="#DDDDDD"/>
<stop offset="0.9195" stop-color="#EDEDED"/>
<stop offset="0.9345" stop-color="#EAEAEA"/>
<stop offset="0.9475" stop-color="#DFDFDF"/>
<stop offset="0.9597" stop-color="#CDCDCD"/>
<stop offset="0.9715" stop-color="#B4B4B4"/>
<stop offset="0.9829" stop-color="#949494"/>
<stop offset="0.9939" stop-color="#6D6D6D"/>
<stop offset="1" stop-color="#545454"/>
</radialGradient>
<linearGradient id="paint2_linear_943_46" x1="65.5502" y1="52.6322" x2="196.366" y2="209.266" gradientUnits="userSpaceOnUse">
<stop stop-color="#FFD600" stop-opacity="0.42"/>
<stop offset="0.2162" stop-color="#FFD600" stop-opacity="0.42"/>
<stop offset="0.5653" stop-color="#FFD600" stop-opacity="0.42"/>
<stop offset="1" stop-color="#B8B8B8"/>
<stop offset="1" stop-color="#FFD600"/>
</linearGradient>
<clipPath id="clip0_943_46">
<rect width="261" height="261" rx="10" fill="white"/>
</clipPath>
</defs>
</svg>
