<svg width="1037" height="357" viewBox="0 0 1037 357" fill="none" xmlns="http://www.w3.org/2000/svg">
<path d="M140.842 45.2478V48.3533H140.667C139.19 48.3533 137.975 48.7087 137.022 49.4197C136.077 50.1228 135.495 51.1033 135.276 52.3611C136.167 51.4861 137.292 51.0486 138.651 51.0486C140.128 51.0486 141.303 51.5876 142.178 52.6658C143.053 53.7439 143.491 55.158 143.491 56.908C143.491 57.9939 143.233 58.99 142.717 59.8962C142.21 60.8025 141.495 61.5134 140.573 62.0291C139.659 62.5369 138.643 62.7908 137.526 62.7908C136.315 62.7908 135.233 62.5173 134.28 61.9705C133.327 61.4158 132.585 60.6267 132.053 59.6033C131.522 58.5798 131.249 57.4001 131.233 56.0642V54.4822C131.233 52.7244 131.608 51.1462 132.358 49.7478C133.116 48.3416 134.194 47.24 135.592 46.4431C136.991 45.6462 138.542 45.2478 140.245 45.2478H140.842ZM137.28 54.072C136.756 54.072 136.319 54.1931 135.967 54.4353C135.616 54.6775 135.354 54.9744 135.182 55.3259V56.5095C135.182 58.6658 135.928 59.7439 137.421 59.7439C138.022 59.7439 138.522 59.4744 138.921 58.9353C139.327 58.3962 139.53 57.7205 139.53 56.908C139.53 56.072 139.323 55.3923 138.909 54.8689C138.503 54.3376 137.96 54.072 137.28 54.072ZM146.276 54.2126L147.319 45.4939H157.292V48.5642H150.53L150.143 51.9509C150.425 51.7869 150.792 51.6423 151.245 51.5173C151.706 51.3923 152.155 51.3298 152.593 51.3298C154.288 51.3298 155.589 51.8337 156.495 52.8416C157.409 53.8416 157.866 55.2478 157.866 57.0603C157.866 58.1541 157.62 59.1462 157.128 60.0369C156.643 60.9197 155.96 61.5994 155.077 62.0759C154.194 62.5525 153.151 62.7908 151.948 62.7908C150.878 62.7908 149.874 62.572 148.936 62.1345C147.999 61.6892 147.264 61.0837 146.733 60.3181C146.202 59.5447 145.94 58.6736 145.948 57.7048H149.909C149.948 58.3298 150.147 58.8259 150.507 59.1931C150.866 59.5603 151.339 59.7439 151.925 59.7439C153.253 59.7439 153.917 58.7595 153.917 56.7908C153.917 54.9705 153.104 54.0603 151.479 54.0603C150.557 54.0603 149.87 54.3572 149.417 54.9509L146.276 54.2126ZM168.561 56.7322H161.519V53.6736H168.561V56.7322ZM184.284 47.6033L177.909 62.5564H173.737L180.124 48.5408H171.991V45.4939H184.284V47.6033ZM199.011 55.5837C199.011 57.8884 198.491 59.6658 197.452 60.9158C196.421 62.1658 194.964 62.7908 193.081 62.7908C191.183 62.7908 189.714 62.1619 188.675 60.9041C187.636 59.6462 187.116 57.8728 187.116 55.5837V52.4666C187.116 50.1619 187.632 48.3845 188.663 47.1345C189.702 45.8845 191.167 45.2595 193.058 45.2595C194.949 45.2595 196.413 45.8884 197.452 47.1462C198.491 48.4041 199.011 50.1814 199.011 52.4783V55.5837ZM195.062 51.9626C195.062 50.7361 194.902 49.822 194.581 49.2205C194.261 48.6111 193.753 48.3064 193.058 48.3064C192.378 48.3064 191.882 48.5876 191.57 49.1501C191.265 49.7126 191.101 50.5642 191.077 51.7048V56.0642C191.077 57.3376 191.238 58.2712 191.558 58.865C191.878 59.4509 192.386 59.7439 193.081 59.7439C193.753 59.7439 194.249 59.4587 194.57 58.8884C194.89 58.3103 195.054 57.408 195.062 56.1814V51.9626ZM201.913 48.7751C201.913 47.7205 202.257 46.8689 202.945 46.2205C203.632 45.572 204.554 45.2478 205.71 45.2478C206.882 45.2478 207.808 45.572 208.488 46.2205C209.167 46.8611 209.507 47.7322 209.507 48.8337V49.6775C209.507 50.7322 209.167 51.5798 208.488 52.2205C207.808 52.8611 206.89 53.1814 205.734 53.1814C204.585 53.1814 203.66 52.865 202.956 52.2322C202.261 51.5916 201.913 50.7166 201.913 49.6072V48.7751ZM204.456 49.6775C204.456 50.0837 204.57 50.4158 204.796 50.6736C205.023 50.9236 205.335 51.0486 205.734 51.0486C206.554 51.0486 206.964 50.5251 206.964 49.4783V48.7751C206.964 48.3689 206.855 48.0369 206.636 47.7791C206.417 47.5134 206.109 47.3806 205.71 47.3806C205.328 47.3806 205.023 47.5095 204.796 47.7673C204.57 48.0173 204.456 48.3611 204.456 48.7986V49.6775ZM210.023 58.3728C210.023 57.3103 210.367 56.4587 211.054 55.8181C211.749 55.1775 212.671 54.8572 213.82 54.8572C214.984 54.8572 215.91 55.1736 216.597 55.8064C217.285 56.4392 217.628 57.322 217.628 58.4548V59.2751C217.628 60.3376 217.288 61.1892 216.609 61.8298C215.929 62.4705 215.007 62.7908 213.843 62.7908C212.695 62.7908 211.769 62.4744 211.066 61.8416C210.371 61.2009 210.023 60.3259 210.023 59.2166V58.3728ZM212.554 59.2751C212.554 59.6423 212.679 59.9666 212.929 60.2478C213.179 60.5212 213.484 60.658 213.843 60.658C214.601 60.658 215.011 60.2986 215.074 59.5798L215.085 58.3728C215.085 57.9587 214.972 57.6267 214.746 57.3767C214.519 57.1189 214.21 56.99 213.82 56.99C213.445 56.99 213.144 57.1111 212.917 57.3533C212.691 57.5876 212.57 57.908 212.554 58.3142V59.2751ZM206.484 61.2791L204.644 60.3533L212.976 47.0173L214.816 47.9431L206.484 61.2791Z" fill="#448B42"/>
<path d="M107.137 88.5837H100.528L99.1447 92.5564H96.0627L102.508 75.4939H105.168L111.625 92.5564H108.531L107.137 88.5837ZM101.36 86.1931H106.305L103.832 79.115L101.36 86.1931ZM119.344 90.5173C120.055 90.5173 120.645 90.3103 121.114 89.8962C121.582 89.4822 121.832 88.9705 121.864 88.3611H124.547C124.516 89.1501 124.27 89.8884 123.809 90.5759C123.348 91.2556 122.723 91.7947 121.934 92.1931C121.145 92.5916 120.293 92.7908 119.379 92.7908C117.606 92.7908 116.2 92.2166 115.161 91.0681C114.121 89.9197 113.602 88.3337 113.602 86.3103V86.0173C113.602 84.0876 114.118 82.5447 115.149 81.3884C116.18 80.2244 117.586 79.6423 119.368 79.6423C120.875 79.6423 122.102 80.0837 123.047 80.9666C124 81.8416 124.5 82.9939 124.547 84.4236H121.864C121.832 83.697 121.582 83.0994 121.114 82.6306C120.653 82.1619 120.063 81.9275 119.344 81.9275C118.422 81.9275 117.711 82.2634 117.211 82.9353C116.711 83.5994 116.457 84.6111 116.45 85.9705V86.4275C116.45 87.8025 116.696 88.8298 117.188 89.5095C117.688 90.1814 118.407 90.5173 119.344 90.5173ZM131.106 76.7947V79.8767H133.344V81.9861H131.106V89.0642C131.106 89.5486 131.2 89.9001 131.387 90.1189C131.583 90.3298 131.926 90.4353 132.418 90.4353C132.747 90.4353 133.079 90.3962 133.415 90.3181V92.5212C132.766 92.7009 132.141 92.7908 131.54 92.7908C129.352 92.7908 128.258 91.5837 128.258 89.1697V81.9861H126.172V79.8767H128.258V76.7947H131.106ZM139.399 92.5564H136.551V79.8767H139.399V92.5564ZM136.376 76.5837C136.376 76.1462 136.512 75.783 136.786 75.4939C137.067 75.2048 137.466 75.0603 137.981 75.0603C138.497 75.0603 138.895 75.2048 139.176 75.4939C139.458 75.783 139.598 76.1462 139.598 76.5837C139.598 77.0134 139.458 77.3728 139.176 77.6619C138.895 77.9431 138.497 78.0837 137.981 78.0837C137.466 78.0837 137.067 77.9431 136.786 77.6619C136.512 77.3728 136.376 77.0134 136.376 76.5837ZM147.821 88.947L150.505 79.8767H153.446L149.052 92.5564H146.579L142.149 79.8767H145.102L147.821 88.947ZM161.493 92.7908C159.688 92.7908 158.224 92.2244 157.099 91.0916C155.981 89.9509 155.423 88.4353 155.423 86.5447V86.1931C155.423 84.9275 155.665 83.7986 156.149 82.8064C156.642 81.8064 157.329 81.0291 158.212 80.4744C159.095 79.9197 160.079 79.6423 161.165 79.6423C162.892 79.6423 164.224 80.1931 165.161 81.2947C166.106 82.3962 166.579 83.9548 166.579 85.9705V87.1189H158.294C158.38 88.1658 158.728 88.9939 159.337 89.6033C159.954 90.2126 160.728 90.5173 161.657 90.5173C162.962 90.5173 164.024 89.99 164.845 88.9353L166.38 90.4001C165.872 91.158 165.192 91.7478 164.341 92.1697C163.497 92.5837 162.548 92.7908 161.493 92.7908ZM161.153 81.9275C160.372 81.9275 159.739 82.2009 159.255 82.7478C158.778 83.2947 158.474 84.0564 158.341 85.033H163.767V84.822C163.704 83.8689 163.45 83.1501 163.005 82.6658C162.56 82.1736 161.942 81.9275 161.153 81.9275ZM190.115 88.3376L192.74 75.4939H195.681L191.743 92.5564H188.908L185.661 80.0994L182.345 92.5564H179.497L175.56 75.4939H178.501L181.15 88.3142L184.408 75.4939H186.892L190.115 88.3376ZM197.505 86.0994C197.505 84.8572 197.751 83.74 198.244 82.7478C198.736 81.7478 199.427 80.9822 200.318 80.4509C201.208 79.9119 202.232 79.6423 203.388 79.6423C205.099 79.6423 206.486 80.1931 207.548 81.2947C208.619 82.3962 209.197 83.8572 209.283 85.6775L209.294 86.3455C209.294 87.5955 209.052 88.7126 208.568 89.697C208.091 90.6814 207.404 91.4431 206.505 91.9822C205.615 92.5212 204.583 92.7908 203.412 92.7908C201.623 92.7908 200.189 92.197 199.111 91.0095C198.041 89.8142 197.505 88.2244 197.505 86.24V86.0994ZM200.353 86.3455C200.353 87.6501 200.623 88.6736 201.162 89.4158C201.701 90.1501 202.451 90.5173 203.412 90.5173C204.373 90.5173 205.119 90.1423 205.65 89.3923C206.189 88.6423 206.458 87.5447 206.458 86.0994C206.458 84.8181 206.181 83.8025 205.626 83.0525C205.08 82.3025 204.333 81.9275 203.388 81.9275C202.458 81.9275 201.72 82.2986 201.173 83.0408C200.626 83.7751 200.353 84.8767 200.353 86.3455ZM215.22 79.8767L215.302 81.2009C216.193 80.1619 217.412 79.6423 218.959 79.6423C220.654 79.6423 221.814 80.2908 222.439 81.5876C223.361 80.2908 224.658 79.6423 226.33 79.6423C227.728 79.6423 228.767 80.0291 229.447 80.8025C230.134 81.5759 230.486 82.7166 230.502 84.2244V92.5564H227.654V84.3064C227.654 83.5017 227.478 82.9119 227.127 82.5369C226.775 82.1619 226.193 81.9744 225.381 81.9744C224.732 81.9744 224.201 82.1501 223.787 82.5017C223.381 82.8455 223.095 83.2986 222.931 83.8611L222.943 92.5564H220.095V84.2126C220.056 82.7205 219.295 81.9744 217.81 81.9744C216.67 81.9744 215.861 82.4392 215.384 83.3689V92.5564H212.537V79.8767H215.22ZM239.849 92.7908C238.045 92.7908 236.58 92.2244 235.455 91.0916C234.338 89.9509 233.779 88.4353 233.779 86.5447V86.1931C233.779 84.9275 234.021 83.7986 234.506 82.8064C234.998 81.8064 235.685 81.0291 236.568 80.4744C237.451 79.9197 238.435 79.6423 239.521 79.6423C241.248 79.6423 242.58 80.1931 243.517 81.2947C244.463 82.3962 244.935 83.9548 244.935 85.9705V87.1189H236.65C236.736 88.1658 237.084 88.9939 237.693 89.6033C238.31 90.2126 239.084 90.5173 240.014 90.5173C241.318 90.5173 242.381 89.99 243.201 88.9353L244.736 90.4001C244.228 91.158 243.549 91.7478 242.697 92.1697C241.853 92.5837 240.904 92.7908 239.849 92.7908ZM239.51 81.9275C238.728 81.9275 238.096 82.2009 237.611 82.7478C237.135 83.2947 236.83 84.0564 236.697 85.033H242.123V84.822C242.06 83.8689 241.806 83.1501 241.361 82.6658C240.916 82.1736 240.299 81.9275 239.51 81.9275ZM250.639 79.8767L250.721 81.3416C251.658 80.2087 252.889 79.6423 254.412 79.6423C257.053 79.6423 258.396 81.1541 258.443 84.1775V92.5564H255.596V84.3416C255.596 83.5369 255.42 82.9431 255.068 82.5603C254.725 82.1697 254.158 81.9744 253.369 81.9744C252.221 81.9744 251.365 82.4939 250.803 83.533V92.5564H247.955V79.8767H250.639Z" fill="black"/>
<path d="M342.602 234.047L336.227 249H332.055L338.442 234.984H330.309V231.938H342.602V234.047ZM357.328 242.027C357.328 244.332 356.809 246.109 355.77 247.359C354.739 248.609 353.282 249.234 351.399 249.234C349.5 249.234 348.032 248.605 346.993 247.348C345.953 246.09 345.434 244.316 345.434 242.027V238.91C345.434 236.605 345.95 234.828 346.981 233.578C348.02 232.328 349.485 231.703 351.375 231.703C353.266 231.703 354.731 232.332 355.77 233.59C356.809 234.848 357.328 236.625 357.328 238.922V242.027ZM353.379 238.406C353.379 237.18 353.219 236.266 352.899 235.664C352.578 235.055 352.071 234.75 351.375 234.75C350.696 234.75 350.2 235.031 349.887 235.594C349.582 236.156 349.418 237.008 349.395 238.148V242.508C349.395 243.781 349.555 244.715 349.875 245.309C350.196 245.895 350.703 246.188 351.399 246.188C352.071 246.188 352.567 245.902 352.887 245.332C353.207 244.754 353.371 243.852 353.379 242.625V238.406ZM360.231 235.219C360.231 234.164 360.575 233.312 361.262 232.664C361.95 232.016 362.872 231.691 364.028 231.691C365.2 231.691 366.126 232.016 366.805 232.664C367.485 233.305 367.825 234.176 367.825 235.277V236.121C367.825 237.176 367.485 238.023 366.805 238.664C366.126 239.305 365.208 239.625 364.051 239.625C362.903 239.625 361.977 239.309 361.274 238.676C360.579 238.035 360.231 237.16 360.231 236.051V235.219ZM362.774 236.121C362.774 236.527 362.887 236.859 363.114 237.117C363.34 237.367 363.653 237.492 364.051 237.492C364.872 237.492 365.282 236.969 365.282 235.922V235.219C365.282 234.812 365.172 234.48 364.954 234.223C364.735 233.957 364.426 233.824 364.028 233.824C363.645 233.824 363.34 233.953 363.114 234.211C362.887 234.461 362.774 234.805 362.774 235.242V236.121ZM368.34 244.816C368.34 243.754 368.684 242.902 369.372 242.262C370.067 241.621 370.989 241.301 372.137 241.301C373.301 241.301 374.227 241.617 374.915 242.25C375.602 242.883 375.946 243.766 375.946 244.898V245.719C375.946 246.781 375.606 247.633 374.926 248.273C374.247 248.914 373.325 249.234 372.161 249.234C371.012 249.234 370.086 248.918 369.383 248.285C368.688 247.645 368.34 246.77 368.34 245.66V244.816ZM370.872 245.719C370.872 246.086 370.997 246.41 371.247 246.691C371.497 246.965 371.801 247.102 372.161 247.102C372.918 247.102 373.329 246.742 373.391 246.023L373.403 244.816C373.403 244.402 373.29 244.07 373.063 243.82C372.836 243.562 372.528 243.434 372.137 243.434C371.762 243.434 371.461 243.555 371.235 243.797C371.008 244.031 370.887 244.352 370.872 244.758V245.719ZM364.801 247.723L362.961 246.797L371.293 233.461L373.133 234.387L364.801 247.723Z" fill="#448B42"/>
<path d="M312.836 270.914C312.836 272.586 312.547 274.055 311.968 275.32C311.39 276.578 310.562 277.547 309.484 278.227C308.414 278.898 307.179 279.234 305.781 279.234C304.398 279.234 303.164 278.898 302.078 278.227C301 277.547 300.164 276.582 299.57 275.332C298.984 274.082 298.687 272.641 298.679 271.008V270.047C298.679 268.383 298.972 266.914 299.558 265.641C300.152 264.367 300.984 263.395 302.054 262.723C303.133 262.043 304.367 261.703 305.758 261.703C307.148 261.703 308.379 262.039 309.449 262.711C310.527 263.375 311.359 264.336 311.945 265.594C312.531 266.844 312.828 268.301 312.836 269.965V270.914ZM309.871 270.023C309.871 268.133 309.511 266.684 308.793 265.676C308.082 264.668 307.07 264.164 305.758 264.164C304.476 264.164 303.472 264.668 302.746 265.676C302.027 266.676 301.66 268.094 301.644 269.93V270.914C301.644 272.789 302.008 274.238 302.734 275.262C303.468 276.285 304.484 276.797 305.781 276.797C307.093 276.797 308.101 276.297 308.804 275.297C309.515 274.297 309.871 272.836 309.871 270.914V270.023ZM317.355 279V268.43H315.422V266.32H317.355V265.16C317.355 263.754 317.746 262.668 318.527 261.902C319.308 261.137 320.402 260.754 321.808 260.754C322.308 260.754 322.84 260.824 323.402 260.965L323.332 263.191C323.019 263.129 322.656 263.098 322.242 263.098C320.883 263.098 320.203 263.797 320.203 265.195V266.32H322.781V268.43H320.203V279H317.355ZM342.625 271.77H335.758V279H332.793V261.938H343.633V264.328H335.758V269.402H342.625V271.77ZM345.762 272.543C345.762 271.301 346.008 270.184 346.5 269.191C346.993 268.191 347.684 267.426 348.575 266.895C349.465 266.355 350.489 266.086 351.645 266.086C353.356 266.086 354.743 266.637 355.805 267.738C356.875 268.84 357.453 270.301 357.539 272.121L357.551 272.789C357.551 274.039 357.309 275.156 356.825 276.141C356.348 277.125 355.661 277.887 354.762 278.426C353.871 278.965 352.84 279.234 351.668 279.234C349.879 279.234 348.446 278.641 347.368 277.453C346.297 276.258 345.762 274.668 345.762 272.684V272.543ZM348.61 272.789C348.61 274.094 348.879 275.117 349.418 275.859C349.957 276.594 350.707 276.961 351.668 276.961C352.629 276.961 353.375 276.586 353.907 275.836C354.446 275.086 354.715 273.988 354.715 272.543C354.715 271.262 354.438 270.246 353.883 269.496C353.336 268.746 352.59 268.371 351.645 268.371C350.715 268.371 349.977 268.742 349.43 269.484C348.883 270.219 348.61 271.32 348.61 272.789ZM360.266 272.543C360.266 271.301 360.512 270.184 361.004 269.191C361.497 268.191 362.188 267.426 363.079 266.895C363.969 266.355 364.993 266.086 366.149 266.086C367.86 266.086 369.247 266.637 370.309 267.738C371.379 268.84 371.958 270.301 372.043 272.121L372.055 272.789C372.055 274.039 371.813 275.156 371.329 276.141C370.852 277.125 370.165 277.887 369.266 278.426C368.376 278.965 367.344 279.234 366.172 279.234C364.383 279.234 362.95 278.641 361.872 277.453C360.801 276.258 360.266 274.668 360.266 272.684V272.543ZM363.114 272.789C363.114 274.094 363.383 275.117 363.922 275.859C364.461 276.594 365.211 276.961 366.172 276.961C367.133 276.961 367.879 276.586 368.411 275.836C368.95 275.086 369.219 273.988 369.219 272.543C369.219 271.262 368.942 270.246 368.387 269.496C367.84 268.746 367.094 268.371 366.149 268.371C365.219 268.371 364.481 268.742 363.934 269.484C363.387 270.219 363.114 271.32 363.114 272.789ZM374.77 272.566C374.77 270.613 375.223 269.047 376.13 267.867C377.036 266.68 378.251 266.086 379.774 266.086C381.118 266.086 382.204 266.555 383.032 267.492V261H385.88V279H383.301L383.161 277.688C382.309 278.719 381.173 279.234 379.751 279.234C378.266 279.234 377.063 278.637 376.141 277.441C375.227 276.246 374.77 274.621 374.77 272.566ZM377.618 272.812C377.618 274.102 377.864 275.109 378.356 275.836C378.856 276.555 379.563 276.914 380.477 276.914C381.641 276.914 382.493 276.395 383.032 275.355V269.941C382.508 268.926 381.665 268.418 380.501 268.418C379.579 268.418 378.868 268.785 378.368 269.52C377.868 270.246 377.618 271.344 377.618 272.812ZM399.911 279H396.958V261.938H399.911V279ZM406.763 266.32L406.845 267.785C407.782 266.652 409.013 266.086 410.536 266.086C413.177 266.086 414.521 267.598 414.568 270.621V279H411.72V270.785C411.72 269.98 411.544 269.387 411.193 269.004C410.849 268.613 410.282 268.418 409.493 268.418C408.345 268.418 407.489 268.938 406.927 269.977V279H404.079V266.32H406.763ZM330.877 309H327.912L320.307 296.895V309H317.342V291.938H320.307L327.936 304.09V291.938H330.877V309ZM337.975 309H335.127V296.32H337.975V309ZM334.951 293.027C334.951 292.59 335.088 292.227 335.361 291.938C335.643 291.648 336.041 291.504 336.557 291.504C337.072 291.504 337.471 291.648 337.752 291.938C338.033 292.227 338.174 292.59 338.174 293.027C338.174 293.457 338.033 293.816 337.752 294.105C337.471 294.387 337.072 294.527 336.557 294.527C336.041 294.527 335.643 294.387 335.361 294.105C335.088 293.816 334.951 293.457 334.951 293.027ZM341.428 302.566C341.428 300.598 341.889 299.027 342.811 297.855C343.741 296.676 344.971 296.086 346.502 296.086C347.948 296.086 349.084 296.59 349.912 297.598L350.041 296.32H352.608V308.613C352.608 310.277 352.088 311.59 351.049 312.551C350.018 313.512 348.623 313.992 346.866 313.992C345.936 313.992 345.026 313.797 344.135 313.406C343.252 313.023 342.58 312.52 342.119 311.895L343.467 310.184C344.342 311.223 345.42 311.742 346.701 311.742C347.647 311.742 348.393 311.484 348.94 310.969C349.487 310.461 349.76 309.711 349.76 308.719V307.863C348.94 308.777 347.846 309.234 346.479 309.234C344.994 309.234 343.78 308.645 342.834 307.465C341.897 306.285 341.428 304.652 341.428 302.566ZM344.264 302.812C344.264 304.086 344.522 305.09 345.037 305.824C345.561 306.551 346.283 306.914 347.205 306.914C348.354 306.914 349.205 306.422 349.76 305.438V299.859C349.221 298.898 348.377 298.418 347.229 298.418C346.291 298.418 345.561 298.789 345.037 299.531C344.522 300.273 344.264 301.367 344.264 302.812ZM361.967 309.234C360.163 309.234 358.698 308.668 357.573 307.535C356.456 306.395 355.897 304.879 355.897 302.988V302.637C355.897 301.371 356.139 300.242 356.623 299.25C357.116 298.25 357.803 297.473 358.686 296.918C359.569 296.363 360.553 296.086 361.639 296.086C363.366 296.086 364.698 296.637 365.635 297.738C366.581 298.84 367.053 300.398 367.053 302.414V303.562H358.768C358.854 304.609 359.202 305.438 359.811 306.047C360.428 306.656 361.202 306.961 362.131 306.961C363.436 306.961 364.498 306.434 365.319 305.379L366.854 306.844C366.346 307.602 365.666 308.191 364.815 308.613C363.971 309.027 363.022 309.234 361.967 309.234ZM361.627 298.371C360.846 298.371 360.213 298.645 359.729 299.191C359.252 299.738 358.948 300.5 358.815 301.477H364.241V301.266C364.178 300.312 363.924 299.594 363.479 299.109C363.034 298.617 362.416 298.371 361.627 298.371ZM376.753 298.922C376.378 298.859 375.991 298.828 375.592 298.828C374.288 298.828 373.409 299.328 372.956 300.328V309H370.108V296.32H372.827L372.897 297.738C373.585 296.637 374.538 296.086 375.756 296.086C376.163 296.086 376.499 296.141 376.764 296.25L376.753 298.922ZM382.421 309H379.573V296.32H382.421V309ZM379.397 293.027C379.397 292.59 379.534 292.227 379.807 291.938C380.089 291.648 380.487 291.504 381.003 291.504C381.518 291.504 381.917 291.648 382.198 291.938C382.479 292.227 382.62 292.59 382.62 293.027C382.62 293.457 382.479 293.816 382.198 294.105C381.917 294.387 381.518 294.527 381.003 294.527C380.487 294.527 380.089 294.387 379.807 294.105C379.534 293.816 379.397 293.457 379.397 293.027ZM393.948 309C393.823 308.758 393.714 308.363 393.62 307.816C392.714 308.762 391.604 309.234 390.292 309.234C389.018 309.234 387.979 308.871 387.175 308.145C386.37 307.418 385.968 306.52 385.968 305.449C385.968 304.098 386.468 303.062 387.468 302.344C388.476 301.617 389.913 301.254 391.78 301.254H393.526V300.422C393.526 299.766 393.343 299.242 392.976 298.852C392.608 298.453 392.05 298.254 391.3 298.254C390.651 298.254 390.12 298.418 389.706 298.746C389.292 299.066 389.085 299.477 389.085 299.977H386.237C386.237 299.281 386.468 298.633 386.929 298.031C387.39 297.422 388.015 296.945 388.804 296.602C389.601 296.258 390.487 296.086 391.464 296.086C392.948 296.086 394.132 296.461 395.015 297.211C395.897 297.953 396.351 299 396.374 300.352V306.07C396.374 307.211 396.534 308.121 396.854 308.801V309H393.948ZM390.819 306.949C391.382 306.949 391.909 306.812 392.401 306.539C392.901 306.266 393.276 305.898 393.526 305.438V303.047H391.991C390.936 303.047 390.143 303.23 389.612 303.598C389.081 303.965 388.815 304.484 388.815 305.156C388.815 305.703 388.995 306.141 389.354 306.469C389.722 306.789 390.21 306.949 390.819 306.949Z" fill="black"/>
<path d="M656.847 257.157V263.497H653.882V246.435H660.41C662.316 246.435 663.828 246.931 664.945 247.923C666.07 248.915 666.632 250.228 666.632 251.861C666.632 253.532 666.081 254.833 664.98 255.763C663.886 256.693 662.351 257.157 660.374 257.157H656.847ZM656.847 254.779H660.41C661.464 254.779 662.269 254.532 662.824 254.04C663.378 253.54 663.656 252.822 663.656 251.884C663.656 250.962 663.374 250.228 662.812 249.681C662.249 249.126 661.476 248.841 660.492 248.825H656.847V254.779ZM676.437 253.419C676.062 253.357 675.675 253.325 675.277 253.325C673.972 253.325 673.093 253.825 672.64 254.825V263.497H669.793V250.818H672.511L672.582 252.236C673.269 251.134 674.222 250.583 675.441 250.583C675.847 250.583 676.183 250.638 676.449 250.747L676.437 253.419ZM678.121 257.04C678.121 255.798 678.367 254.681 678.859 253.689C679.351 252.689 680.043 251.923 680.933 251.392C681.824 250.853 682.847 250.583 684.004 250.583C685.715 250.583 687.101 251.134 688.164 252.236C689.234 253.337 689.812 254.798 689.898 256.618L689.91 257.286C689.91 258.536 689.668 259.654 689.183 260.638C688.707 261.622 688.019 262.384 687.121 262.923C686.23 263.462 685.199 263.732 684.027 263.732C682.238 263.732 680.804 263.138 679.726 261.95C678.656 260.755 678.121 259.165 678.121 257.181V257.04ZM680.969 257.286C680.969 258.591 681.238 259.615 681.777 260.357C682.316 261.091 683.066 261.458 684.027 261.458C684.988 261.458 685.734 261.083 686.265 260.333C686.804 259.583 687.074 258.486 687.074 257.04C687.074 255.759 686.797 254.743 686.242 253.993C685.695 253.243 684.949 252.868 684.004 252.868C683.074 252.868 682.336 253.24 681.789 253.982C681.242 254.716 680.969 255.818 680.969 257.286ZM697.441 259.888L700.125 250.818H703.066L698.672 263.497H696.199L691.769 250.818H694.723L697.441 259.888ZM708.723 263.497H705.875V250.818H708.723V263.497ZM705.699 247.525C705.699 247.087 705.836 246.724 706.109 246.435C706.391 246.146 706.789 246.001 707.305 246.001C707.82 246.001 708.219 246.146 708.5 246.435C708.781 246.724 708.922 247.087 708.922 247.525C708.922 247.954 708.781 248.314 708.5 248.603C708.219 248.884 707.82 249.025 707.305 249.025C706.789 249.025 706.391 248.884 706.109 248.603C705.836 248.314 705.699 247.954 705.699 247.525ZM712.141 257.064C712.141 255.111 712.594 253.544 713.5 252.365C714.406 251.177 715.621 250.583 717.145 250.583C718.489 250.583 719.574 251.052 720.403 251.99V245.497H723.25V263.497H720.672L720.531 262.185C719.68 263.216 718.543 263.732 717.121 263.732C715.637 263.732 714.434 263.134 713.512 261.939C712.598 260.743 712.141 259.118 712.141 257.064ZM714.989 257.31C714.989 258.599 715.235 259.607 715.727 260.333C716.227 261.052 716.934 261.411 717.848 261.411C719.012 261.411 719.864 260.892 720.403 259.853V254.439C719.879 253.423 719.035 252.915 717.871 252.915C716.949 252.915 716.239 253.282 715.739 254.017C715.239 254.743 714.989 255.841 714.989 257.31ZM730.09 263.497H727.243V250.818H730.09V263.497ZM727.067 247.525C727.067 247.087 727.204 246.724 727.477 246.435C727.758 246.146 728.157 246.001 728.672 246.001C729.188 246.001 729.586 246.146 729.868 246.435C730.149 246.724 730.289 247.087 730.289 247.525C730.289 247.954 730.149 248.314 729.868 248.603C729.586 248.884 729.188 249.025 728.672 249.025C728.157 249.025 727.758 248.884 727.477 248.603C727.204 248.314 727.067 247.954 727.067 247.525ZM736.684 250.818L736.766 252.282C737.704 251.15 738.934 250.583 740.458 250.583C743.098 250.583 744.442 252.095 744.489 255.118V263.497H741.641V255.282C741.641 254.478 741.465 253.884 741.114 253.501C740.77 253.111 740.204 252.915 739.415 252.915C738.266 252.915 737.411 253.435 736.848 254.474V263.497H734.001V250.818H736.684ZM747.743 257.064C747.743 255.095 748.204 253.525 749.126 252.353C750.055 251.173 751.286 250.583 752.817 250.583C754.262 250.583 755.399 251.087 756.227 252.095L756.356 250.818H758.923V263.111C758.923 264.775 758.403 266.087 757.364 267.048C756.333 268.009 754.938 268.49 753.18 268.49C752.251 268.49 751.341 268.294 750.45 267.904C749.567 267.521 748.895 267.017 748.434 266.392L749.782 264.681C750.657 265.72 751.735 266.24 753.016 266.24C753.962 266.24 754.708 265.982 755.255 265.466C755.801 264.958 756.075 264.208 756.075 263.216V262.361C755.255 263.275 754.161 263.732 752.794 263.732C751.309 263.732 750.094 263.142 749.149 261.962C748.212 260.782 747.743 259.15 747.743 257.064ZM750.579 257.31C750.579 258.583 750.837 259.587 751.352 260.322C751.876 261.048 752.598 261.411 753.52 261.411C754.669 261.411 755.52 260.919 756.075 259.935V254.357C755.536 253.396 754.692 252.915 753.544 252.915C752.606 252.915 751.876 253.286 751.352 254.029C750.837 254.771 750.579 255.865 750.579 257.31Z" fill="black"/>
<path d="M615.61 293.497V276.435H621.106C622.614 276.435 623.97 276.779 625.173 277.466C626.376 278.146 627.313 279.111 627.985 280.361C628.665 281.603 629.009 282.997 629.016 284.544V285.329C629.016 286.892 628.684 288.294 628.02 289.536C627.364 290.771 626.434 291.74 625.231 292.443C624.036 293.138 622.7 293.49 621.224 293.497H615.61ZM619.724 279.611V290.333H621.153C622.333 290.333 623.239 289.915 623.872 289.079C624.505 288.236 624.821 286.986 624.821 285.329V284.591C624.821 282.943 624.505 281.7 623.872 280.865C623.239 280.029 622.317 279.611 621.106 279.611H619.724ZM635.95 293.497H631.989V280.818H635.95V293.497ZM631.755 277.548C631.755 276.986 631.958 276.525 632.364 276.165C632.771 275.806 633.298 275.626 633.946 275.626C634.595 275.626 635.122 275.806 635.528 276.165C635.935 276.525 636.138 276.986 636.138 277.548C636.138 278.111 635.935 278.572 635.528 278.931C635.122 279.29 634.595 279.47 633.946 279.47C633.298 279.47 632.771 279.29 632.364 278.931C631.958 278.572 631.755 278.111 631.755 277.548ZM638.771 287.064C638.771 285.782 638.982 284.65 639.404 283.665C639.825 282.681 640.431 281.923 641.22 281.392C642.009 280.853 642.927 280.583 643.974 280.583C645.294 280.583 646.325 281.029 647.068 281.919L647.208 280.818H650.794V293.017C650.794 294.134 650.532 295.103 650.009 295.923C649.493 296.751 648.743 297.384 647.759 297.822C646.775 298.267 645.634 298.49 644.337 298.49C643.407 298.49 642.505 298.314 641.63 297.962C640.763 297.611 640.099 297.154 639.638 296.591L641.29 294.271C642.025 295.138 642.993 295.572 644.196 295.572C645.946 295.572 646.821 294.673 646.821 292.876V292.478C646.064 293.314 645.107 293.732 643.95 293.732C642.404 293.732 641.154 293.142 640.2 291.962C639.247 290.775 638.771 289.189 638.771 287.204V287.064ZM642.732 287.31C642.732 288.349 642.927 289.173 643.318 289.782C643.708 290.384 644.255 290.685 644.958 290.685C645.81 290.685 646.431 290.4 646.821 289.829V284.497C646.439 283.919 645.825 283.63 644.982 283.63C644.279 283.63 643.728 283.947 643.329 284.579C642.931 285.204 642.732 286.115 642.732 287.31ZM658.044 293.497H654.083V280.818H658.044V293.497ZM653.849 277.548C653.849 276.986 654.052 276.525 654.458 276.165C654.865 275.806 655.392 275.626 656.04 275.626C656.689 275.626 657.216 275.806 657.622 276.165C658.029 276.525 658.232 276.986 658.232 277.548C658.232 278.111 658.029 278.572 657.622 278.931C657.216 279.29 656.689 279.47 656.04 279.47C655.392 279.47 654.865 279.29 654.458 278.931C654.052 278.572 653.849 278.111 653.849 277.548ZM665.927 277.665V280.818H668.013V283.56H665.927V289.361C665.927 289.837 666.013 290.169 666.185 290.357C666.357 290.544 666.697 290.638 667.205 290.638C667.595 290.638 667.923 290.615 668.189 290.568V293.392C667.478 293.618 666.736 293.732 665.962 293.732C664.603 293.732 663.599 293.411 662.951 292.771C662.302 292.13 661.978 291.157 661.978 289.853V283.56H660.361V280.818H661.978V277.665H665.927ZM677.56 293.497C677.42 293.24 677.295 292.861 677.185 292.361C676.459 293.275 675.443 293.732 674.138 293.732C672.943 293.732 671.927 293.372 671.091 292.654C670.256 291.927 669.838 291.017 669.838 289.923C669.838 288.548 670.345 287.509 671.361 286.806C672.377 286.103 673.853 285.751 675.791 285.751H677.009V285.083C677.009 283.919 676.506 283.337 675.498 283.337C674.56 283.337 674.091 283.798 674.091 284.72H670.142C670.142 283.493 670.662 282.497 671.701 281.732C672.748 280.966 674.08 280.583 675.697 280.583C677.314 280.583 678.591 280.978 679.529 281.767C680.466 282.556 680.947 283.638 680.97 285.013V290.626C680.986 291.79 681.166 292.681 681.509 293.298V293.497H677.56ZM675.088 290.919C675.58 290.919 675.986 290.814 676.306 290.603C676.634 290.392 676.869 290.154 677.009 289.888V287.861H675.861C674.486 287.861 673.799 288.478 673.799 289.712C673.799 290.072 673.92 290.365 674.162 290.591C674.404 290.81 674.713 290.919 675.088 290.919ZM688.174 293.497H684.213V275.497H688.174V293.497ZM702.569 287.708V293.497H698.455V276.435H705.264C706.569 276.435 707.721 276.677 708.721 277.161C709.729 277.638 710.506 278.322 711.053 279.212C711.608 280.095 711.885 281.099 711.885 282.224C711.885 283.888 711.287 285.22 710.092 286.22C708.904 287.212 707.272 287.708 705.194 287.708H702.569ZM702.569 284.532H705.264C706.061 284.532 706.666 284.333 707.08 283.935C707.502 283.536 707.713 282.974 707.713 282.247C707.713 281.45 707.498 280.814 707.069 280.337C706.639 279.861 706.053 279.618 705.311 279.611H702.569V284.532ZM718.912 293.497H714.951V275.497H718.912V293.497ZM729.338 293.497C729.198 293.24 729.073 292.861 728.963 292.361C728.237 293.275 727.221 293.732 725.916 293.732C724.721 293.732 723.706 293.372 722.87 292.654C722.034 291.927 721.616 291.017 721.616 289.923C721.616 288.548 722.124 287.509 723.139 286.806C724.155 286.103 725.631 285.751 727.569 285.751H728.788V285.083C728.788 283.919 728.284 283.337 727.276 283.337C726.338 283.337 725.87 283.798 725.87 284.72H721.92C721.92 283.493 722.44 282.497 723.479 281.732C724.526 280.966 725.858 280.583 727.475 280.583C729.092 280.583 730.37 280.978 731.307 281.767C732.245 282.556 732.725 283.638 732.749 285.013V290.626C732.764 291.79 732.944 292.681 733.288 293.298V293.497H729.338ZM726.866 290.919C727.358 290.919 727.764 290.814 728.084 290.603C728.413 290.392 728.647 290.154 728.788 289.888V287.861H727.639C726.264 287.861 725.577 288.478 725.577 289.712C725.577 290.072 725.698 290.365 725.94 290.591C726.182 290.81 726.491 290.919 726.866 290.919ZM740.385 277.665V280.818H742.471V283.56H740.385V289.361C740.385 289.837 740.471 290.169 740.643 290.357C740.815 290.544 741.155 290.638 741.663 290.638C742.053 290.638 742.381 290.615 742.647 290.568V293.392C741.936 293.618 741.194 293.732 740.421 293.732C739.061 293.732 738.057 293.411 737.409 292.771C736.76 292.13 736.436 291.157 736.436 289.853V283.56H734.819V280.818H736.436V277.665H740.385ZM745.749 293.497V283.56H743.909V280.818H745.749V279.81C745.749 278.365 746.175 277.243 747.026 276.447C747.878 275.65 749.073 275.251 750.612 275.251C751.175 275.251 751.792 275.333 752.464 275.497L752.475 278.404C752.233 278.333 751.909 278.298 751.503 278.298C750.307 278.298 749.71 278.814 749.71 279.845V280.818H752.182V283.56H749.71V293.497H745.749ZM753.913 287.04C753.913 285.775 754.159 284.65 754.651 283.665C755.144 282.673 755.851 281.911 756.772 281.38C757.694 280.849 758.776 280.583 760.019 280.583C761.917 280.583 763.413 281.173 764.507 282.353C765.601 283.525 766.147 285.122 766.147 287.146V287.286C766.147 289.263 765.597 290.833 764.495 291.997C763.401 293.154 761.917 293.732 760.042 293.732C758.237 293.732 756.788 293.193 755.694 292.115C754.601 291.029 754.011 289.56 753.925 287.708L753.913 287.04ZM757.862 287.286C757.862 288.458 758.046 289.318 758.413 289.865C758.78 290.411 759.323 290.685 760.042 290.685C761.448 290.685 762.167 289.603 762.198 287.439V287.04C762.198 284.767 761.472 283.63 760.019 283.63C758.698 283.63 757.983 284.611 757.874 286.572L757.862 287.286ZM776.398 284.392L775.097 284.298C773.855 284.298 773.058 284.689 772.706 285.47V293.497H768.757V280.818H772.46L772.589 282.447C773.253 281.204 774.179 280.583 775.366 280.583C775.788 280.583 776.155 280.63 776.468 280.724L776.398 284.392ZM782.394 280.818L782.523 282.306C783.421 281.157 784.628 280.583 786.144 280.583C787.745 280.583 788.827 281.22 789.39 282.493C790.249 281.22 791.491 280.583 793.116 280.583C795.687 280.583 797.007 282.138 797.077 285.247V293.497H793.116V285.493C793.116 284.845 793.007 284.372 792.788 284.075C792.57 283.779 792.171 283.63 791.593 283.63C790.812 283.63 790.23 283.978 789.847 284.673L789.859 284.837V293.497H785.898V285.517C785.898 284.853 785.792 284.372 785.581 284.075C785.37 283.779 784.968 283.63 784.374 283.63C783.616 283.63 783.038 283.978 782.64 284.673V293.497H778.691V280.818H782.394Z" fill="#448B42"/>
<path d="M800.071 53.0645H797.117V36.002H800.071V53.0645ZM806.922 40.3848L807.004 41.8496C807.942 40.7168 809.172 40.1504 810.696 40.1504C813.336 40.1504 814.68 41.6621 814.727 44.6855V53.0645H811.879V44.8496C811.879 44.0449 811.703 43.4512 811.352 43.0684C811.008 42.6777 810.442 42.4824 809.653 42.4824C808.504 42.4824 807.649 43.002 807.086 44.041V53.0645H804.239V40.3848H806.922ZM822.95 49.4551L825.633 40.3848H828.575L824.18 53.0645H821.708L817.278 40.3848H820.231L822.95 49.4551ZM836.622 53.2988C834.817 53.2988 833.352 52.7324 832.227 51.5996C831.11 50.459 830.551 48.9434 830.551 47.0527V46.7012C830.551 45.4355 830.794 44.3066 831.278 43.3145C831.77 42.3145 832.458 41.5371 833.341 40.9824C834.223 40.4277 835.208 40.1504 836.294 40.1504C838.02 40.1504 839.352 40.7012 840.29 41.8027C841.235 42.9043 841.708 44.4629 841.708 46.4785V47.627H833.423C833.508 48.6738 833.856 49.502 834.466 50.1113C835.083 50.7207 835.856 51.0254 836.786 51.0254C838.091 51.0254 839.153 50.498 839.973 49.4434L841.508 50.9082C841.001 51.666 840.321 52.2559 839.469 52.6777C838.626 53.0918 837.676 53.2988 836.622 53.2988ZM836.282 42.4355C835.501 42.4355 834.868 42.709 834.383 43.2559C833.907 43.8027 833.602 44.5645 833.469 45.541H838.895V45.3301C838.833 44.377 838.579 43.6582 838.133 43.1738C837.688 42.6816 837.071 42.4355 836.282 42.4355ZM851.876 49.6191C851.876 49.1113 851.665 48.7246 851.243 48.459C850.829 48.1934 850.138 47.959 849.169 47.7559C848.2 47.5527 847.391 47.2949 846.743 46.9824C845.321 46.2949 844.61 45.2988 844.61 43.9941C844.61 42.9004 845.071 41.9863 845.993 41.252C846.915 40.5176 848.087 40.1504 849.509 40.1504C851.024 40.1504 852.247 40.5254 853.177 41.2754C854.114 42.0254 854.583 42.998 854.583 44.1934H851.735C851.735 43.6465 851.532 43.1934 851.126 42.834C850.72 42.4668 850.181 42.2832 849.509 42.2832C848.884 42.2832 848.372 42.4277 847.973 42.7168C847.583 43.0059 847.388 43.3926 847.388 43.877C847.388 44.3145 847.571 44.6543 847.938 44.8965C848.306 45.1387 849.048 45.3848 850.165 45.6348C851.282 45.877 852.157 46.1699 852.79 46.5137C853.431 46.8496 853.903 47.2559 854.208 47.7324C854.52 48.209 854.677 48.7871 854.677 49.4668C854.677 50.6074 854.204 51.5332 853.259 52.2441C852.313 52.9473 851.075 53.2988 849.544 53.2988C848.505 53.2988 847.579 53.1113 846.766 52.7363C845.954 52.3613 845.321 51.8457 844.868 51.1895C844.415 50.5332 844.188 49.8262 844.188 49.0684H846.954C846.993 49.7402 847.247 50.2598 847.716 50.627C848.184 50.9863 848.806 51.166 849.579 51.166C850.329 51.166 850.899 51.0254 851.29 50.7441C851.681 50.4551 851.876 50.0801 851.876 49.6191ZM861.575 37.3027V40.3848H863.813V42.4941H861.575V49.5723C861.575 50.0566 861.669 50.4082 861.856 50.627C862.052 50.8379 862.396 50.9434 862.888 50.9434C863.216 50.9434 863.548 50.9043 863.884 50.8262V53.0293C863.235 53.209 862.61 53.2988 862.009 53.2988C859.821 53.2988 858.728 52.0918 858.728 49.6777V42.4941H856.642V40.3848H858.728V37.3027H861.575ZM869.517 40.3848L869.599 41.709C870.489 40.6699 871.708 40.1504 873.255 40.1504C874.95 40.1504 876.111 40.7988 876.736 42.0957C877.657 40.7988 878.954 40.1504 880.626 40.1504C882.025 40.1504 883.064 40.5371 883.743 41.3105C884.431 42.084 884.782 43.2246 884.798 44.7324V53.0645H881.95V44.8145C881.95 44.0098 881.775 43.4199 881.423 43.0449C881.071 42.6699 880.489 42.4824 879.677 42.4824C879.028 42.4824 878.497 42.6582 878.083 43.0098C877.677 43.3535 877.392 43.8066 877.228 44.3691L877.239 53.0645H874.392V44.7207C874.353 43.2285 873.591 42.4824 872.107 42.4824C870.966 42.4824 870.157 42.9473 869.681 43.877V53.0645H866.833V40.3848H869.517ZM894.146 53.2988C892.341 53.2988 890.876 52.7324 889.751 51.5996C888.634 50.459 888.076 48.9434 888.076 47.0527V46.7012C888.076 45.4355 888.318 44.3066 888.802 43.3145C889.294 42.3145 889.982 41.5371 890.865 40.9824C891.747 40.4277 892.732 40.1504 893.818 40.1504C895.544 40.1504 896.876 40.7012 897.814 41.8027C898.759 42.9043 899.232 44.4629 899.232 46.4785V47.627H890.947C891.033 48.6738 891.38 49.502 891.99 50.1113C892.607 50.7207 893.38 51.0254 894.31 51.0254C895.615 51.0254 896.677 50.498 897.497 49.4434L899.033 50.9082C898.525 51.666 897.845 52.2559 896.993 52.6777C896.15 53.0918 895.201 53.2988 894.146 53.2988ZM893.806 42.4355C893.025 42.4355 892.392 42.709 891.908 43.2559C891.431 43.8027 891.126 44.5645 890.993 45.541H896.419V45.3301C896.357 44.377 896.103 43.6582 895.658 43.1738C895.212 42.6816 894.595 42.4355 893.806 42.4355ZM904.935 40.3848L905.017 41.8496C905.955 40.7168 907.185 40.1504 908.708 40.1504C911.349 40.1504 912.693 41.6621 912.74 44.6855V53.0645H909.892V44.8496C909.892 44.0449 909.716 43.4512 909.365 43.0684C909.021 42.6777 908.455 42.4824 907.666 42.4824C906.517 42.4824 905.662 43.002 905.099 44.041V53.0645H902.251V40.3848H904.935ZM920.06 37.3027V40.3848H922.298V42.4941H920.06V49.5723C920.06 50.0566 920.154 50.4082 920.341 50.627C920.537 50.8379 920.881 50.9434 921.373 50.9434C921.701 50.9434 922.033 50.9043 922.369 50.8262V53.0293C921.72 53.209 921.095 53.2988 920.494 53.2988C918.306 53.2988 917.213 52.0918 917.213 49.6777V42.4941H915.127V40.3848H917.213V37.3027H920.06ZM935.17 53.0645H932.322V40.3848H935.17V53.0645ZM932.146 37.0918C932.146 36.6543 932.283 36.291 932.557 36.002C932.838 35.7129 933.236 35.5684 933.752 35.5684C934.268 35.5684 934.666 35.7129 934.947 36.002C935.228 36.291 935.369 36.6543 935.369 37.0918C935.369 37.5215 935.228 37.8809 934.947 38.1699C934.666 38.4512 934.268 38.5918 933.752 38.5918C933.236 38.5918 932.838 38.4512 932.557 38.1699C932.283 37.8809 932.146 37.5215 932.146 37.0918ZM941.764 40.3848L941.846 41.8496C942.783 40.7168 944.014 40.1504 945.537 40.1504C948.178 40.1504 949.522 41.6621 949.568 44.6855V53.0645H946.721V44.8496C946.721 44.0449 946.545 43.4512 946.193 43.0684C945.85 42.6777 945.283 42.4824 944.494 42.4824C943.346 42.4824 942.49 43.002 941.928 44.041V53.0645H939.08V40.3848H941.764Z" fill="black"/>
<path d="M811.963 75.834H805.494V79.9004H813.135V83.0645H801.381V66.002H813.158V69.1777H805.494V72.7754H811.963V75.834ZM823.186 77.2402H816.143V74.1816H823.186V77.2402ZM844.694 75.834H838.225V79.9004H845.866V83.0645H834.112V66.002H845.889V69.1777H838.225V72.7754H844.694V75.834ZM853.339 73.877L855.179 70.3848H859.28L855.94 76.5605L859.444 83.0645H855.319L853.327 79.3145L851.37 83.0645H847.222L850.737 76.5605L847.409 70.3848H851.558L853.339 73.877ZM865.991 67.2324V70.3848H868.077V73.127H865.991V78.9277C865.991 79.4043 866.077 79.7363 866.249 79.9238C866.421 80.1113 866.761 80.2051 867.269 80.2051C867.659 80.2051 867.987 80.1816 868.253 80.1348V82.959C867.542 83.1855 866.8 83.2988 866.026 83.2988C864.667 83.2988 863.663 82.9785 863.015 82.3379C862.366 81.6973 862.042 80.7246 862.042 79.4199V73.127H860.425V70.3848H862.042V67.2324H865.991ZM876.616 83.2988C874.671 83.2988 873.097 82.7207 871.894 81.5645C870.691 80.4004 870.089 78.8887 870.089 77.0293V76.7012C870.089 75.4043 870.327 74.2598 870.804 73.2676C871.288 72.2754 871.991 71.5098 872.913 70.9707C873.835 70.4238 874.929 70.1504 876.195 70.1504C877.976 70.1504 879.382 70.7051 880.413 71.8145C881.445 72.916 881.96 74.4551 881.96 76.4316V77.9668H874.109C874.249 78.6777 874.558 79.2363 875.034 79.6426C875.511 80.0488 876.128 80.252 876.886 80.252C878.136 80.252 879.113 79.8145 879.816 78.9395L881.62 81.0723C881.128 81.752 880.429 82.2949 879.523 82.7012C878.624 83.0996 877.656 83.2988 876.616 83.2988ZM876.171 73.1973C875.015 73.1973 874.327 73.9629 874.109 75.4941H878.093V75.1895C878.109 74.5566 877.948 74.0684 877.613 73.7246C877.277 73.373 876.796 73.1973 876.171 73.1973ZM888.027 70.3848L888.156 71.873C889.031 70.7246 890.238 70.1504 891.777 70.1504C893.097 70.1504 894.081 70.5449 894.73 71.334C895.386 72.123 895.726 73.3105 895.749 74.8965V83.0645H891.788V75.0605C891.788 74.4199 891.66 73.9512 891.402 73.6543C891.144 73.3496 890.675 73.1973 889.996 73.1973C889.222 73.1973 888.648 73.502 888.273 74.1113V83.0645H884.324V70.3848H888.027ZM905.425 79.502C905.425 79.166 905.25 78.8965 904.898 78.6934C904.546 78.4902 903.878 78.2793 902.894 78.0605C901.91 77.8418 901.097 77.5566 900.457 77.2051C899.816 76.8457 899.328 76.4121 898.992 75.9043C898.656 75.3965 898.488 74.8145 898.488 74.1582C898.488 72.9941 898.968 72.0371 899.929 71.2871C900.89 70.5293 902.148 70.1504 903.703 70.1504C905.375 70.1504 906.718 70.5293 907.734 71.2871C908.75 72.0449 909.257 73.041 909.257 74.2754H905.296C905.296 73.2598 904.761 72.752 903.691 72.752C903.277 72.752 902.929 72.8691 902.648 73.1035C902.367 73.3301 902.226 73.6152 902.226 73.959C902.226 74.3105 902.398 74.5957 902.742 74.8145C903.086 75.0332 903.632 75.2129 904.382 75.3535C905.14 75.4941 905.804 75.6621 906.375 75.8574C908.281 76.5137 909.234 77.6895 909.234 79.3848C909.234 80.541 908.718 81.4824 907.687 82.209C906.664 82.9355 905.336 83.2988 903.703 83.2988C902.617 83.2988 901.648 83.1035 900.796 82.7129C899.945 82.3223 899.281 81.791 898.804 81.1191C898.328 80.4473 898.089 79.7402 898.089 78.998H901.781C901.796 79.584 901.992 80.0137 902.367 80.2871C902.742 80.5527 903.222 80.6855 903.808 80.6855C904.347 80.6855 904.75 80.5762 905.015 80.3574C905.289 80.1387 905.425 79.8535 905.425 79.502ZM916.097 83.0645H912.136V70.3848H916.097V83.0645ZM911.902 67.1152C911.902 66.5527 912.105 66.0918 912.511 65.7324C912.918 65.373 913.445 65.1934 914.093 65.1934C914.742 65.1934 915.269 65.373 915.676 65.7324C916.082 66.0918 916.285 66.5527 916.285 67.1152C916.285 67.6777 916.082 68.1387 915.676 68.498C915.269 68.8574 914.742 69.0371 914.093 69.0371C913.445 69.0371 912.918 68.8574 912.511 68.498C912.105 68.1387 911.902 67.6777 911.902 67.1152ZM918.883 76.6074C918.883 75.3418 919.129 74.2168 919.621 73.2324C920.113 72.2402 920.82 71.4785 921.742 70.9473C922.664 70.416 923.746 70.1504 924.988 70.1504C926.887 70.1504 928.383 70.7402 929.476 71.9199C930.57 73.0918 931.117 74.6895 931.117 76.7129V76.8535C931.117 78.8301 930.566 80.4004 929.465 81.5645C928.371 82.7207 926.887 83.2988 925.012 83.2988C923.207 83.2988 921.758 82.7598 920.664 81.6816C919.57 80.5957 918.98 79.127 918.894 77.2754L918.883 76.6074ZM922.832 76.8535C922.832 78.0254 923.016 78.8848 923.383 79.4316C923.75 79.9785 924.293 80.252 925.012 80.252C926.418 80.252 927.137 79.1699 927.168 77.0059V76.6074C927.168 74.334 926.441 73.1973 924.988 73.1973C923.668 73.1973 922.953 74.1777 922.844 76.1387L922.832 76.8535ZM937.324 70.3848L937.453 71.873C938.328 70.7246 939.535 70.1504 941.074 70.1504C942.395 70.1504 943.379 70.5449 944.027 71.334C944.684 72.123 945.023 73.3105 945.047 74.8965V83.0645H941.086V75.0605C941.086 74.4199 940.957 73.9512 940.699 73.6543C940.441 73.3496 939.973 73.1973 939.293 73.1973C938.52 73.1973 937.945 73.502 937.57 74.1113V83.0645H933.621V70.3848H937.324Z" fill="#448B42"/>
<path d="M424.507 23V5.9375H430.636C432.831 5.9375 434.499 6.33984 435.64 7.14453C436.788 7.94922 437.363 9.11719 437.363 10.6484C437.363 11.5312 437.159 12.2852 436.753 12.9102C436.347 13.5352 435.749 13.9961 434.96 14.293C435.851 14.5273 436.534 14.9648 437.011 15.6055C437.488 16.2461 437.726 17.0273 437.726 17.9492C437.726 19.6211 437.195 20.8789 436.132 21.7227C435.077 22.5586 433.511 22.9844 431.433 23H424.507ZM428.62 15.7461V19.8359H431.316C432.058 19.8359 432.628 19.668 433.027 19.332C433.425 18.9883 433.624 18.5078 433.624 17.8906C433.624 16.4688 432.917 15.7539 431.503 15.7461H428.62ZM428.62 13.0508H430.765C431.663 13.043 432.304 12.8789 432.687 12.5586C433.07 12.2383 433.261 11.7656 433.261 11.1406C433.261 10.4219 433.054 9.90625 432.64 9.59375C432.226 9.27344 431.558 9.11328 430.636 9.11328H428.62V13.0508ZM448.21 21.6289C447.374 22.6992 446.246 23.2344 444.824 23.2344C443.433 23.2344 442.378 22.832 441.66 22.0273C440.949 21.2148 440.593 20.0508 440.593 18.5352V10.3203H444.542V18.5586C444.542 19.6445 445.07 20.1875 446.124 20.1875C447.031 20.1875 447.675 19.8633 448.058 19.2148V10.3203H452.031V23H448.328L448.21 21.6289ZM461.683 19.4375C461.683 19.1016 461.507 18.832 461.156 18.6289C460.804 18.4258 460.136 18.2148 459.152 17.9961C458.168 17.7773 457.355 17.4922 456.714 17.1406C456.074 16.7812 455.586 16.3477 455.25 15.8398C454.914 15.332 454.746 14.75 454.746 14.0938C454.746 12.9297 455.226 11.9727 456.187 11.2227C457.148 10.4648 458.406 10.0859 459.961 10.0859C461.632 10.0859 462.976 10.4648 463.992 11.2227C465.007 11.9805 465.515 12.9766 465.515 14.2109H461.554C461.554 13.1953 461.019 12.6875 459.949 12.6875C459.535 12.6875 459.187 12.8047 458.906 13.0391C458.625 13.2656 458.484 13.5508 458.484 13.8945C458.484 14.2461 458.656 14.5312 459 14.75C459.343 14.9688 459.89 15.1484 460.64 15.2891C461.398 15.4297 462.062 15.5977 462.632 15.793C464.539 16.4492 465.492 17.625 465.492 19.3203C465.492 20.4766 464.976 21.418 463.945 22.1445C462.921 22.8711 461.593 23.2344 459.961 23.2344C458.875 23.2344 457.906 23.0391 457.054 22.6484C456.203 22.2578 455.539 21.7266 455.062 21.0547C454.586 20.3828 454.347 19.6758 454.347 18.9336H458.039C458.054 19.5195 458.25 19.9492 458.625 20.2227C459 20.4883 459.48 20.6211 460.066 20.6211C460.605 20.6211 461.007 20.5117 461.273 20.293C461.546 20.0742 461.683 19.7891 461.683 19.4375ZM472.355 23H468.394V10.3203H472.355V23ZM468.16 7.05078C468.16 6.48828 468.363 6.02734 468.769 5.66797C469.176 5.30859 469.703 5.12891 470.351 5.12891C471 5.12891 471.527 5.30859 471.933 5.66797C472.34 6.02734 472.543 6.48828 472.543 7.05078C472.543 7.61328 472.34 8.07422 471.933 8.43359C471.527 8.79297 471 8.97266 470.351 8.97266C469.703 8.97266 469.176 8.79297 468.769 8.43359C468.363 8.07422 468.16 7.61328 468.16 7.05078ZM479.266 10.3203L479.394 11.8086C480.269 10.6602 481.476 10.0859 483.016 10.0859C484.336 10.0859 485.32 10.4805 485.969 11.2695C486.625 12.0586 486.965 13.2461 486.988 14.832V23H483.027V14.9961C483.027 14.3555 482.898 13.8867 482.641 13.5898C482.383 13.2852 481.914 13.1328 481.234 13.1328C480.461 13.1328 479.887 13.4375 479.512 14.0469V23H475.562V10.3203H479.266ZM496.16 23.2344C494.215 23.2344 492.641 22.6562 491.438 21.5C490.234 20.3359 489.633 18.8242 489.633 16.9648V16.6367C489.633 15.3398 489.871 14.1953 490.348 13.2031C490.832 12.2109 491.535 11.4453 492.457 10.9062C493.379 10.3594 494.473 10.0859 495.738 10.0859C497.52 10.0859 498.926 10.6406 499.957 11.75C500.988 12.8516 501.504 14.3906 501.504 16.3672V17.9023H493.652C493.793 18.6133 494.102 19.1719 494.578 19.5781C495.055 19.9844 495.672 20.1875 496.43 20.1875C497.68 20.1875 498.656 19.75 499.359 18.875L501.164 21.0078C500.672 21.6875 499.973 22.2305 499.066 22.6367C498.168 23.0352 497.199 23.2344 496.16 23.2344ZM495.715 13.1328C494.559 13.1328 493.871 13.8984 493.652 15.4297H497.637V15.125C497.652 14.4922 497.492 14.0039 497.156 13.6602C496.82 13.3086 496.34 13.1328 495.715 13.1328ZM510.582 19.4375C510.582 19.1016 510.406 18.832 510.055 18.6289C509.703 18.4258 509.035 18.2148 508.051 17.9961C507.067 17.7773 506.254 17.4922 505.613 17.1406C504.973 16.7812 504.485 16.3477 504.149 15.8398C503.813 15.332 503.645 14.75 503.645 14.0938C503.645 12.9297 504.125 11.9727 505.086 11.2227C506.047 10.4648 507.305 10.0859 508.86 10.0859C510.531 10.0859 511.875 10.4648 512.891 11.2227C513.906 11.9805 514.414 12.9766 514.414 14.2109H510.453C510.453 13.1953 509.918 12.6875 508.848 12.6875C508.434 12.6875 508.086 12.8047 507.805 13.0391C507.524 13.2656 507.383 13.5508 507.383 13.8945C507.383 14.2461 507.555 14.5312 507.899 14.75C508.242 14.9688 508.789 15.1484 509.539 15.2891C510.297 15.4297 510.961 15.5977 511.531 15.793C513.438 16.4492 514.391 17.625 514.391 19.3203C514.391 20.4766 513.875 21.418 512.844 22.1445C511.821 22.8711 510.492 23.2344 508.86 23.2344C507.774 23.2344 506.805 23.0391 505.953 22.6484C505.102 22.2578 504.438 21.7266 503.961 21.0547C503.485 20.3828 503.246 19.6758 503.246 18.9336H506.938C506.953 19.5195 507.149 19.9492 507.524 20.2227C507.899 20.4883 508.379 20.6211 508.965 20.6211C509.504 20.6211 509.906 20.5117 510.172 20.293C510.446 20.0742 510.582 19.7891 510.582 19.4375ZM523.727 19.4375C523.727 19.1016 523.551 18.832 523.2 18.6289C522.848 18.4258 522.18 18.2148 521.196 17.9961C520.211 17.7773 519.399 17.4922 518.758 17.1406C518.118 16.7812 517.629 16.3477 517.293 15.8398C516.957 15.332 516.789 14.75 516.789 14.0938C516.789 12.9297 517.27 11.9727 518.231 11.2227C519.192 10.4648 520.45 10.0859 522.004 10.0859C523.676 10.0859 525.02 10.4648 526.035 11.2227C527.051 11.9805 527.559 12.9766 527.559 14.2109H523.598C523.598 13.1953 523.063 12.6875 521.993 12.6875C521.578 12.6875 521.231 12.8047 520.95 13.0391C520.668 13.2656 520.528 13.5508 520.528 13.8945C520.528 14.2461 520.7 14.5312 521.043 14.75C521.387 14.9688 521.934 15.1484 522.684 15.2891C523.442 15.4297 524.106 15.5977 524.676 15.793C526.582 16.4492 527.535 17.625 527.535 19.3203C527.535 20.4766 527.02 21.418 525.989 22.1445C524.965 22.8711 523.637 23.2344 522.004 23.2344C520.918 23.2344 519.95 23.0391 519.098 22.6484C518.246 22.2578 517.582 21.7266 517.106 21.0547C516.629 20.3828 516.391 19.6758 516.391 18.9336H520.082C520.098 19.5195 520.293 19.9492 520.668 20.2227C521.043 20.4883 521.524 20.6211 522.11 20.6211C522.649 20.6211 523.051 20.5117 523.317 20.293C523.59 20.0742 523.727 19.7891 523.727 19.4375ZM546.032 18.4648C546.032 17.8633 545.817 17.3945 545.387 17.0586C544.965 16.7227 544.219 16.375 543.149 16.0156C542.079 15.6562 541.204 15.3086 540.524 14.9727C538.313 13.8867 537.208 12.3945 537.208 10.4961C537.208 9.55078 537.481 8.71875 538.028 8C538.583 7.27344 539.364 6.71094 540.372 6.3125C541.38 5.90625 542.512 5.70312 543.77 5.70312C544.997 5.70312 546.094 5.92188 547.063 6.35938C548.04 6.79687 548.798 7.42188 549.337 8.23438C549.876 9.03906 550.145 9.96094 550.145 11H546.044C546.044 10.3047 545.829 9.76562 545.399 9.38281C544.977 9 544.403 8.80859 543.676 8.80859C542.942 8.80859 542.36 8.97266 541.93 9.30078C541.508 9.62109 541.298 10.0312 541.298 10.5312C541.298 10.9688 541.532 11.3672 542.001 11.7266C542.469 12.0781 543.294 12.4453 544.473 12.8281C545.653 13.2031 546.622 13.6094 547.38 14.0469C549.223 15.1094 550.145 16.5742 550.145 18.4414C550.145 19.9336 549.583 21.1055 548.458 21.957C547.333 22.8086 545.79 23.2344 543.829 23.2344C542.446 23.2344 541.192 22.9883 540.067 22.4961C538.95 21.9961 538.106 21.3164 537.536 20.457C536.973 19.5898 536.692 18.5938 536.692 17.4688H540.817C540.817 18.3828 541.051 19.0586 541.52 19.4961C541.997 19.9258 542.766 20.1406 543.829 20.1406C544.508 20.1406 545.044 19.9961 545.434 19.707C545.833 19.4102 546.032 18.9961 546.032 18.4648ZM560.466 21.6289C559.63 22.6992 558.501 23.2344 557.079 23.2344C555.688 23.2344 554.634 22.832 553.915 22.0273C553.204 21.2148 552.848 20.0508 552.848 18.5352V10.3203H556.798V18.5586C556.798 19.6445 557.325 20.1875 558.38 20.1875C559.286 20.1875 559.93 19.8633 560.313 19.2148V10.3203H564.286V23H560.583L560.466 21.6289ZM579.071 16.7539C579.071 18.7227 578.626 20.2969 577.735 21.4766C576.853 22.6484 575.657 23.2344 574.149 23.2344C572.985 23.2344 572.028 22.8086 571.278 21.957V27.875H567.329V10.3203H571.021L571.138 11.4922C571.896 10.5547 572.892 10.0859 574.126 10.0859C575.688 10.0859 576.903 10.6641 577.771 11.8203C578.638 12.9688 579.071 14.5508 579.071 16.5664V16.7539ZM575.122 16.5078C575.122 14.2578 574.466 13.1328 573.153 13.1328C572.216 13.1328 571.591 13.4688 571.278 14.1406V19.1328C571.622 19.8359 572.255 20.1875 573.177 20.1875C574.435 20.1875 575.083 19.1016 575.122 16.9297V16.5078ZM593.435 16.7539C593.435 18.7227 592.989 20.2969 592.099 21.4766C591.216 22.6484 590.021 23.2344 588.513 23.2344C587.349 23.2344 586.392 22.8086 585.642 21.957V27.875H581.693V10.3203H585.384L585.501 11.4922C586.259 10.5547 587.255 10.0859 588.489 10.0859C590.052 10.0859 591.267 10.6641 592.134 11.8203C593.001 12.9688 593.435 14.5508 593.435 16.5664V16.7539ZM589.486 16.5078C589.486 14.2578 588.829 13.1328 587.517 13.1328C586.579 13.1328 585.954 13.4688 585.642 14.1406V19.1328C585.986 19.8359 586.618 20.1875 587.54 20.1875C588.798 20.1875 589.446 19.1016 589.486 16.9297V16.5078ZM595.529 16.543C595.529 15.2773 595.775 14.1523 596.267 13.168C596.759 12.1758 597.466 11.4141 598.388 10.8828C599.31 10.3516 600.392 10.0859 601.634 10.0859C603.533 10.0859 605.029 10.6758 606.122 11.8555C607.216 13.0273 607.763 14.625 607.763 16.6484V16.7891C607.763 18.7656 607.212 20.3359 606.111 21.5C605.017 22.6562 603.533 23.2344 601.658 23.2344C599.853 23.2344 598.404 22.6953 597.31 21.6172C596.216 20.5312 595.626 19.0625 595.54 17.2109L595.529 16.543ZM599.478 16.7891C599.478 17.9609 599.661 18.8203 600.029 19.3672C600.396 19.9141 600.939 20.1875 601.658 20.1875C603.064 20.1875 603.783 19.1055 603.814 16.9414V16.543C603.814 14.2695 603.087 13.1328 601.634 13.1328C600.314 13.1328 599.599 14.1133 599.49 16.0742L599.478 16.7891ZM618.013 13.8945L616.712 13.8008C615.47 13.8008 614.673 14.1914 614.322 14.9727V23H610.373V10.3203H614.076L614.205 11.9492C614.869 10.707 615.794 10.0859 616.982 10.0859C617.404 10.0859 617.771 10.1328 618.083 10.2266L618.013 13.8945ZM625.463 7.16797V10.3203H627.548V13.0625H625.463V18.8633C625.463 19.3398 625.548 19.6719 625.72 19.8594C625.892 20.0469 626.232 20.1406 626.74 20.1406C627.131 20.1406 627.459 20.1172 627.724 20.0703V22.8945C627.013 23.1211 626.271 23.2344 625.498 23.2344C624.138 23.2344 623.134 22.9141 622.486 22.2734C621.838 21.6328 621.513 20.6602 621.513 19.3555V13.0625H619.896V10.3203H621.513V7.16797H625.463Z" fill="#448B42"/>
<path d="M432.464 45.7695H425.597V53H422.632V35.9375H433.472V38.3281H425.597V43.4023H432.464V45.7695ZM435.601 46.543C435.601 45.3008 435.847 44.1836 436.339 43.1914C436.831 42.1914 437.523 41.4258 438.413 40.8945C439.304 40.3555 440.328 40.0859 441.484 40.0859C443.195 40.0859 444.581 40.6367 445.644 41.7383C446.714 42.8398 447.292 44.3008 447.378 46.1211L447.39 46.7891C447.39 48.0391 447.148 49.1562 446.663 50.1406C446.187 51.125 445.499 51.8867 444.601 52.4258C443.71 52.9648 442.679 53.2344 441.507 53.2344C439.718 53.2344 438.285 52.6406 437.206 51.4531C436.136 50.2578 435.601 48.668 435.601 46.6836V46.543ZM438.449 46.7891C438.449 48.0938 438.718 49.1172 439.257 49.8594C439.796 50.5938 440.546 50.9609 441.507 50.9609C442.468 50.9609 443.214 50.5859 443.746 49.8359C444.285 49.0859 444.554 47.9883 444.554 46.543C444.554 45.2617 444.277 44.2461 443.722 43.4961C443.175 42.7461 442.429 42.3711 441.484 42.3711C440.554 42.3711 439.816 42.7422 439.269 43.4844C438.722 44.2188 438.449 45.3203 438.449 46.7891ZM457.277 42.9219C456.902 42.8594 456.515 42.8281 456.117 42.8281C454.812 42.8281 453.933 43.3281 453.48 44.3281V53H450.632V40.3203H453.351L453.421 41.7383C454.109 40.6367 455.062 40.0859 456.281 40.0859C456.687 40.0859 457.023 40.1406 457.289 40.25L457.277 42.9219ZM469.41 40.3203L469.492 41.6445C470.383 40.6055 471.601 40.0859 473.148 40.0859C474.844 40.0859 476.004 40.7344 476.629 42.0312C477.551 40.7344 478.848 40.0859 480.519 40.0859C481.918 40.0859 482.957 40.4727 483.637 41.2461C484.324 42.0195 484.676 43.1602 484.691 44.668V53H481.844V44.75C481.844 43.9453 481.668 43.3555 481.316 42.9805C480.965 42.6055 480.383 42.418 479.57 42.418C478.922 42.418 478.391 42.5938 477.976 42.9453C477.57 43.2891 477.285 43.7422 477.121 44.3047L477.133 53H474.285V44.6562C474.246 43.1641 473.484 42.418 472 42.418C470.859 42.418 470.051 42.8828 469.574 43.8125V53H466.726V40.3203H469.41ZM496.031 53C495.906 52.7578 495.797 52.3633 495.703 51.8164C494.797 52.7617 493.688 53.2344 492.375 53.2344C491.102 53.2344 490.063 52.8711 489.258 52.1445C488.453 51.418 488.051 50.5195 488.051 49.4492C488.051 48.0977 488.551 47.0625 489.551 46.3438C490.559 45.6172 491.996 45.2539 493.863 45.2539H495.609V44.4219C495.609 43.7656 495.426 43.2422 495.059 42.8516C494.691 42.4531 494.133 42.2539 493.383 42.2539C492.734 42.2539 492.203 42.418 491.789 42.7461C491.375 43.0664 491.168 43.4766 491.168 43.9766H488.32C488.32 43.2812 488.551 42.6328 489.012 42.0312C489.473 41.4219 490.098 40.9453 490.887 40.6016C491.684 40.2578 492.57 40.0859 493.547 40.0859C495.031 40.0859 496.215 40.4609 497.098 41.2109C497.981 41.9531 498.434 43 498.457 44.3516V50.0703C498.457 51.2109 498.617 52.1211 498.938 52.8008V53H496.031ZM492.902 50.9492C493.465 50.9492 493.992 50.8125 494.484 50.5391C494.984 50.2656 495.359 49.8984 495.609 49.4375V47.0469H494.074C493.02 47.0469 492.227 47.2305 491.695 47.5977C491.164 47.9648 490.898 48.4844 490.898 49.1562C490.898 49.7031 491.078 50.1406 491.438 50.4688C491.805 50.7891 492.293 50.9492 492.902 50.9492ZM505.309 53H502.461V40.3203H505.309V53ZM502.285 37.0273C502.285 36.5898 502.422 36.2266 502.696 35.9375C502.977 35.6484 503.375 35.5039 503.891 35.5039C504.406 35.5039 504.805 35.6484 505.086 35.9375C505.367 36.2266 505.508 36.5898 505.508 37.0273C505.508 37.457 505.367 37.8164 505.086 38.1055C504.805 38.3867 504.406 38.5273 503.891 38.5273C503.375 38.5273 502.977 38.3867 502.696 38.1055C502.422 37.8164 502.285 37.457 502.285 37.0273ZM511.903 40.3203L511.985 41.7852C512.922 40.6523 514.153 40.0859 515.676 40.0859C518.317 40.0859 519.661 41.5977 519.707 44.6211V53H516.86V44.7852C516.86 43.9805 516.684 43.3867 516.332 43.0039C515.989 42.6133 515.422 42.418 514.633 42.418C513.485 42.418 512.629 42.9375 512.067 43.9766V53H509.219V40.3203H511.903ZM526.489 53H523.641V35H526.489V53ZM534.876 48.9219L537.454 40.3203H540.489L535.45 54.9219C534.676 57.0547 533.364 58.1211 531.512 58.1211C531.098 58.1211 530.641 58.0508 530.141 57.9102V55.707L530.68 55.7422C531.399 55.7422 531.938 55.6094 532.298 55.3438C532.665 55.0859 532.954 54.6484 533.165 54.0312L533.575 52.9414L529.122 40.3203H532.192L534.876 48.9219ZM560.931 49.0742L562.946 40.3203H565.724L562.267 53H559.923L557.204 44.293L554.532 53H552.188L548.72 40.3203H551.497L553.548 48.9805L556.149 40.3203H558.294L560.931 49.0742ZM567.935 46.543C567.935 45.3008 568.181 44.1836 568.673 43.1914C569.165 42.1914 569.857 41.4258 570.747 40.8945C571.638 40.3555 572.661 40.0859 573.818 40.0859C575.528 40.0859 576.915 40.6367 577.978 41.7383C579.048 42.8398 579.626 44.3008 579.712 46.1211L579.724 46.7891C579.724 48.0391 579.482 49.1562 578.997 50.1406C578.521 51.125 577.833 51.8867 576.935 52.4258C576.044 52.9648 575.013 53.2344 573.841 53.2344C572.052 53.2344 570.618 52.6406 569.54 51.4531C568.47 50.2578 567.935 48.668 567.935 46.6836V46.543ZM570.782 46.7891C570.782 48.0938 571.052 49.1172 571.591 49.8594C572.13 50.5938 572.88 50.9609 573.841 50.9609C574.802 50.9609 575.548 50.5859 576.079 49.8359C576.618 49.0859 576.888 47.9883 576.888 46.543C576.888 45.2617 576.611 44.2461 576.056 43.4961C575.509 42.7461 574.763 42.3711 573.818 42.3711C572.888 42.3711 572.15 42.7422 571.603 43.4844C571.056 44.2188 570.782 45.3203 570.782 46.7891ZM585.65 40.3203L585.732 41.6445C586.622 40.6055 587.841 40.0859 589.388 40.0859C591.083 40.0859 592.243 40.7344 592.868 42.0312C593.79 40.7344 595.087 40.0859 596.759 40.0859C598.158 40.0859 599.197 40.4727 599.876 41.2461C600.564 42.0195 600.915 43.1602 600.931 44.668V53H598.083V44.75C598.083 43.9453 597.908 43.3555 597.556 42.9805C597.204 42.6055 596.622 42.418 595.81 42.418C595.161 42.418 594.63 42.5938 594.216 42.9453C593.81 43.2891 593.525 43.7422 593.361 44.3047L593.372 53H590.525V44.6562C590.486 43.1641 589.724 42.418 588.24 42.418C587.099 42.418 586.29 42.8828 585.814 43.8125V53H582.966V40.3203H585.65ZM610.279 53.2344C608.474 53.2344 607.009 52.668 605.884 51.5352C604.767 50.3945 604.208 48.8789 604.208 46.9883V46.6367C604.208 45.3711 604.451 44.2422 604.935 43.25C605.427 42.25 606.115 41.4727 606.998 40.918C607.88 40.3633 608.865 40.0859 609.951 40.0859C611.677 40.0859 613.009 40.6367 613.947 41.7383C614.892 42.8398 615.365 44.3984 615.365 46.4141V47.5625H607.08C607.166 48.6094 607.513 49.4375 608.123 50.0469C608.74 50.6562 609.513 50.9609 610.443 50.9609C611.748 50.9609 612.81 50.4336 613.63 49.3789L615.166 50.8438C614.658 51.6016 613.978 52.1914 613.126 52.6133C612.283 53.0273 611.333 53.2344 610.279 53.2344ZM609.939 42.3711C609.158 42.3711 608.525 42.6445 608.041 43.1914C607.564 43.7383 607.259 44.5 607.126 45.4766H612.552V45.2656C612.49 44.3125 612.236 43.5938 611.791 43.1094C611.345 42.6172 610.728 42.3711 609.939 42.3711ZM621.068 40.3203L621.15 41.7852C622.088 40.6523 623.318 40.0859 624.841 40.0859C627.482 40.0859 628.826 41.5977 628.873 44.6211V53H626.025V44.7852C626.025 43.9805 625.849 43.3867 625.498 43.0039C625.154 42.6133 624.588 42.418 623.798 42.418C622.65 42.418 621.795 42.9375 621.232 43.9766V53H618.384V40.3203H621.068ZM477.263 83C477.138 82.7578 477.029 82.3633 476.935 81.8164C476.029 82.7617 474.92 83.2344 473.607 83.2344C472.334 83.2344 471.295 82.8711 470.49 82.1445C469.685 81.418 469.283 80.5195 469.283 79.4492C469.283 78.0977 469.783 77.0625 470.783 76.3438C471.791 75.6172 473.228 75.2539 475.096 75.2539H476.842V74.4219C476.842 73.7656 476.658 73.2422 476.291 72.8516C475.924 72.4531 475.365 72.2539 474.615 72.2539C473.967 72.2539 473.435 72.418 473.021 72.7461C472.607 73.0664 472.4 73.4766 472.4 73.9766H469.553C469.553 73.2812 469.783 72.6328 470.244 72.0312C470.705 71.4219 471.33 70.9453 472.119 70.6016C472.916 70.2578 473.803 70.0859 474.779 70.0859C476.263 70.0859 477.447 70.4609 478.33 71.2109C479.213 71.9531 479.666 73 479.689 74.3516V80.0703C479.689 81.2109 479.849 82.1211 480.17 82.8008V83H477.263ZM474.135 80.9492C474.697 80.9492 475.224 80.8125 475.717 80.5391C476.217 80.2656 476.592 79.8984 476.842 79.4375V77.0469H475.306C474.252 77.0469 473.459 77.2305 472.928 77.5977C472.396 77.9648 472.131 78.4844 472.131 79.1562C472.131 79.7031 472.31 80.1406 472.67 80.4688C473.037 80.7891 473.525 80.9492 474.135 80.9492ZM486.154 70.3203L486.236 71.7852C487.174 70.6523 488.404 70.0859 489.928 70.0859C492.568 70.0859 493.912 71.5977 493.959 74.6211V83H491.111V74.7852C491.111 73.9805 490.936 73.3867 490.584 73.0039C490.24 72.6133 489.674 72.418 488.885 72.418C487.736 72.418 486.881 72.9375 486.318 73.9766V83H483.471V70.3203H486.154ZM497.178 76.5664C497.178 74.6133 497.631 73.0469 498.537 71.8672C499.443 70.6797 500.658 70.0859 502.182 70.0859C503.526 70.0859 504.611 70.5547 505.44 71.4922V65H508.287V83H505.709L505.568 81.6875C504.717 82.7188 503.58 83.2344 502.158 83.2344C500.674 83.2344 499.471 82.6367 498.549 81.4414C497.635 80.2461 497.178 78.6211 497.178 76.5664ZM500.026 76.8125C500.026 78.1016 500.272 79.1094 500.764 79.8359C501.264 80.5547 501.971 80.9141 502.885 80.9141C504.049 80.9141 504.901 80.3945 505.44 79.3555V73.9414C504.916 72.9258 504.072 72.418 502.908 72.418C501.986 72.418 501.276 72.7852 500.776 73.5195C500.276 74.2461 500.026 75.3438 500.026 76.8125ZM524.756 74.0234L528.682 65.9375H531.963L526.245 76.7188V83H523.268V76.7188L517.538 65.9375H520.831L524.756 74.0234ZM533.073 76.543C533.073 75.3008 533.319 74.1836 533.811 73.1914C534.303 72.1914 534.995 71.4258 535.885 70.8945C536.776 70.3555 537.799 70.0859 538.956 70.0859C540.667 70.0859 542.053 70.6367 543.116 71.7383C544.186 72.8398 544.764 74.3008 544.85 76.1211L544.862 76.7891C544.862 78.0391 544.62 79.1562 544.135 80.1406C543.659 81.125 542.971 81.8867 542.073 82.4258C541.182 82.9648 540.151 83.2344 538.979 83.2344C537.19 83.2344 535.756 82.6406 534.678 81.4531C533.608 80.2578 533.073 78.668 533.073 76.6836V76.543ZM535.921 76.7891C535.921 78.0938 536.19 79.1172 536.729 79.8594C537.268 80.5938 538.018 80.9609 538.979 80.9609C539.94 80.9609 540.686 80.5859 541.217 79.8359C541.756 79.0859 542.026 77.9883 542.026 76.543C542.026 75.2617 541.749 74.2461 541.194 73.4961C540.647 72.7461 539.901 72.3711 538.956 72.3711C538.026 72.3711 537.288 72.7422 536.741 73.4844C536.194 74.2188 535.921 75.3203 535.921 76.7891ZM555.792 81.7578C554.956 82.7422 553.768 83.2344 552.229 83.2344C550.854 83.2344 549.811 82.832 549.1 82.0273C548.397 81.2227 548.046 80.0586 548.046 78.5352V70.3203H550.893V78.5C550.893 80.1094 551.561 80.9141 552.897 80.9141C554.28 80.9141 555.214 80.418 555.698 79.4258V70.3203H558.546V83H555.862L555.792 81.7578ZM565.854 67.2383V70.3203H568.093V72.4297H565.854V79.5078C565.854 79.9922 565.948 80.3438 566.136 80.5625C566.331 80.7734 566.675 80.8789 567.167 80.8789C567.495 80.8789 567.827 80.8398 568.163 80.7617V82.9648C567.515 83.1445 566.89 83.2344 566.288 83.2344C564.1 83.2344 563.007 82.0273 563.007 79.6133V72.4297H560.921V70.3203H563.007V67.2383H565.854ZM573.925 71.7031C574.855 70.625 576.03 70.0859 577.452 70.0859C580.155 70.0859 581.526 71.6289 581.566 74.7148V83H578.718V74.8203C578.718 73.9453 578.526 73.3281 578.144 72.9688C577.769 72.6016 577.214 72.418 576.48 72.418C575.339 72.418 574.487 72.9258 573.925 73.9414V83H571.077V65H573.925V71.7031Z" fill="black"/>
<path d="M859.966 213.906C815.042 213.906 792.475 194.595 770.648 175.938C749.564 157.89 729.645 140.862 689.171 140.862C648.698 140.862 628.794 157.89 607.71 175.938C585.884 194.595 563.316 213.906 518.392 213.906C473.469 213.906 450.901 194.595 429.075 175.938C407.99 157.89 388.087 140.862 347.613 140.862C307.139 140.862 287.236 157.89 266.151 175.938C244.325 194.595 221.757 213.906 176.834 213.906C131.91 213.906 109.342 194.595 87.5162 175.938C66.4318 157.89 46.528 140.862 6.05439 140.862C2.70934 140.862 0 138.138 0 134.775C0 131.412 2.70934 128.688 6.05439 128.688C50.978 128.688 73.5457 147.999 95.3718 166.656C116.456 184.704 136.36 201.732 176.834 201.732C217.307 201.732 237.211 184.704 258.295 166.656C280.122 147.999 302.689 128.688 347.613 128.688C392.537 128.688 415.104 147.999 436.93 166.656C458.015 184.704 477.919 201.732 518.392 201.732C558.866 201.732 578.77 184.704 599.854 166.656C621.68 147.999 644.248 128.688 689.171 128.688C734.095 128.688 756.663 147.999 778.489 166.656C799.588 184.704 819.492 201.732 859.966 201.732C900.439 201.732 920.358 184.704 941.443 166.656C963.269 147.999 985.837 128.688 1030.76 128.688C1034.11 128.688 1036.81 131.412 1036.81 134.775C1036.81 138.138 1034.11 140.862 1030.76 140.862C990.287 140.862 970.368 157.89 949.283 175.938C927.457 194.595 904.889 213.906 859.966 213.906Z" fill="#30932E"/>
<g filter="url(#filter0_d_946_87)">
<ellipse cx="354.241" cy="134.422" rx="23.2412" ry="24.4218" fill="#FBBC09"/>
<path d="M354.241 161.844C368.872 161.844 380.482 149.425 380.482 134.422C380.482 119.419 368.872 107 354.241 107C339.61 107 328 119.419 328 134.422C328 149.425 339.61 161.844 354.241 161.844Z" stroke="white" stroke-width="6"/>
</g>
<g filter="url(#filter1_d_946_87)">
<ellipse cx="526.241" cy="213.422" rx="23.2412" ry="24.4215" fill="#FBBC09"/>
<path d="M526.241 240.843C540.872 240.843 552.482 228.424 552.482 213.422C552.482 198.419 540.872 186 526.241 186C511.61 186 500 198.419 500 213.422C500 228.424 511.61 240.843 526.241 240.843Z" stroke="white" stroke-width="6"/>
</g>
<path d="M168 171.268V108" stroke="#FBBC09" stroke-width="2" stroke-linecap="round" stroke-dasharray="2 10"/>
<path d="M354 214.268V151" stroke="#FBBC09" stroke-width="2" stroke-linecap="round" stroke-dasharray="2 10"/>
<path d="M525.509 172.414V109.146" stroke="#FBBC09" stroke-width="2" stroke-linecap="round" stroke-dasharray="2 10"/>
<path d="M703 195.268V132" stroke="#FBBC09" stroke-width="2" stroke-linecap="round" stroke-dasharray="2 10"/>
<path d="M873 171.268V108" stroke="#FBBC09" stroke-width="2" stroke-linecap="round" stroke-dasharray="2 10"/>
<g filter="url(#filter2_d_946_87)">
<ellipse cx="703.241" cy="115.847" rx="23.2411" ry="24.4216" fill="#FBBC09"/>
<path d="M703.241 143.269C717.872 143.269 729.482 130.85 729.482 115.847C729.482 100.844 717.872 88.4255 703.241 88.4255C688.61 88.4255 677 100.844 677 115.847C677 130.85 688.61 143.269 703.241 143.269Z" stroke="white" stroke-width="6"/>
</g>
<g filter="url(#filter3_d_946_87)">
<ellipse cx="873.241" cy="195.238" rx="23.2411" ry="24.4215" fill="#FBBC09"/>
<path d="M873.241 222.659C887.872 222.659 899.482 210.24 899.482 195.238C899.482 180.235 887.872 167.816 873.241 167.816C858.61 167.816 847 180.235 847 195.238C847 210.24 858.61 222.659 873.241 222.659Z" stroke="white" stroke-width="6"/>
</g>
<g filter="url(#filter4_d_946_87)">
<ellipse cx="168.241" cy="189.283" rx="23.2412" ry="24.4219" fill="#FBBC09"/>
<path d="M168.241 216.705C182.872 216.705 194.482 204.286 194.482 189.283C194.482 174.281 182.872 161.862 168.241 161.862C153.61 161.862 142 174.281 142 189.283C142 204.286 153.61 216.705 168.241 216.705Z" stroke="white" stroke-width="6"/>
</g>
<defs>
<filter id="filter0_d_946_87" x="312" y="95" width="84.4824" height="86.8435" filterUnits="userSpaceOnUse" color-interpolation-filters="sRGB">
<feFlood flood-opacity="0" result="BackgroundImageFix"/>
<feColorMatrix in="SourceAlpha" type="matrix" values="0 0 0 0 0 0 0 0 0 0 0 0 0 0 0 0 0 0 127 0" result="hardAlpha"/>
<feOffset dy="4"/>
<feGaussianBlur stdDeviation="6.5"/>
<feComposite in2="hardAlpha" operator="out"/>
<feColorMatrix type="matrix" values="0 0 0 0 0 0 0 0 0 0 0 0 0 0 0 0 0 0 0.1 0"/>
<feBlend mode="normal" in2="BackgroundImageFix" result="effect1_dropShadow_946_87"/>
<feBlend mode="normal" in="SourceGraphic" in2="effect1_dropShadow_946_87" result="shape"/>
</filter>
<filter id="filter1_d_946_87" x="484" y="174" width="84.4824" height="86.843" filterUnits="userSpaceOnUse" color-interpolation-filters="sRGB">
<feFlood flood-opacity="0" result="BackgroundImageFix"/>
<feColorMatrix in="SourceAlpha" type="matrix" values="0 0 0 0 0 0 0 0 0 0 0 0 0 0 0 0 0 0 127 0" result="hardAlpha"/>
<feOffset dy="4"/>
<feGaussianBlur stdDeviation="6.5"/>
<feComposite in2="hardAlpha" operator="out"/>
<feColorMatrix type="matrix" values="0 0 0 0 0 0 0 0 0 0 0 0 0 0 0 0 0 0 0.1 0"/>
<feBlend mode="normal" in2="BackgroundImageFix" result="effect1_dropShadow_946_87"/>
<feBlend mode="normal" in="SourceGraphic" in2="effect1_dropShadow_946_87" result="shape"/>
</filter>
<filter id="filter2_d_946_87" x="661" y="76.4255" width="84.4823" height="86.8433" filterUnits="userSpaceOnUse" color-interpolation-filters="sRGB">
<feFlood flood-opacity="0" result="BackgroundImageFix"/>
<feColorMatrix in="SourceAlpha" type="matrix" values="0 0 0 0 0 0 0 0 0 0 0 0 0 0 0 0 0 0 127 0" result="hardAlpha"/>
<feOffset dy="4"/>
<feGaussianBlur stdDeviation="6.5"/>
<feComposite in2="hardAlpha" operator="out"/>
<feColorMatrix type="matrix" values="0 0 0 0 0 0 0 0 0 0 0 0 0 0 0 0 0 0 0.1 0"/>
<feBlend mode="normal" in2="BackgroundImageFix" result="effect1_dropShadow_946_87"/>
<feBlend mode="normal" in="SourceGraphic" in2="effect1_dropShadow_946_87" result="shape"/>
</filter>
<filter id="filter3_d_946_87" x="831" y="155.816" width="84.4823" height="86.843" filterUnits="userSpaceOnUse" color-interpolation-filters="sRGB">
<feFlood flood-opacity="0" result="BackgroundImageFix"/>
<feColorMatrix in="SourceAlpha" type="matrix" values="0 0 0 0 0 0 0 0 0 0 0 0 0 0 0 0 0 0 127 0" result="hardAlpha"/>
<feOffset dy="4"/>
<feGaussianBlur stdDeviation="6.5"/>
<feComposite in2="hardAlpha" operator="out"/>
<feColorMatrix type="matrix" values="0 0 0 0 0 0 0 0 0 0 0 0 0 0 0 0 0 0 0.1 0"/>
<feBlend mode="normal" in2="BackgroundImageFix" result="effect1_dropShadow_946_87"/>
<feBlend mode="normal" in="SourceGraphic" in2="effect1_dropShadow_946_87" result="shape"/>
</filter>
<filter id="filter4_d_946_87" x="126" y="149.862" width="84.4824" height="86.8438" filterUnits="userSpaceOnUse" color-interpolation-filters="sRGB">
<feFlood flood-opacity="0" result="BackgroundImageFix"/>
<feColorMatrix in="SourceAlpha" type="matrix" values="0 0 0 0 0 0 0 0 0 0 0 0 0 0 0 0 0 0 127 0" result="hardAlpha"/>
<feOffset dy="4"/>
<feGaussianBlur stdDeviation="6.5"/>
<feComposite in2="hardAlpha" operator="out"/>
<feColorMatrix type="matrix" values="0 0 0 0 0 0 0 0 0 0 0 0 0 0 0 0 0 0 0.1 0"/>
<feBlend mode="normal" in2="BackgroundImageFix" result="effect1_dropShadow_946_87"/>
<feBlend mode="normal" in="SourceGraphic" in2="effect1_dropShadow_946_87" result="shape"/>
</filter>
</defs>
</svg>
