<svg width="154" height="154" viewBox="0 0 154 154" fill="none" xmlns="http://www.w3.org/2000/svg">
<g clip-path="url(#clip0_962_23)">
<path d="M8.705 17.41C13.5126 17.41 17.41 13.5126 17.41 8.705C17.41 3.89736 13.5126 0 8.705 0C3.89736 0 0 3.89736 0 8.705C0 13.5126 3.89736 17.41 8.705 17.41Z" fill="#7BD53D" fill-opacity="0.49"/>
<path d="M36.029 17.41C40.8367 17.41 44.734 13.5126 44.734 8.705C44.734 3.89736 40.8367 0 36.029 0C31.2214 0 27.324 3.89736 27.324 8.705C27.324 13.5126 31.2214 17.41 36.029 17.41Z" fill="#7BD53D" fill-opacity="0.49"/>
<path d="M63.3229 17.41C68.1305 17.41 72.0279 13.5126 72.0279 8.705C72.0279 3.89736 68.1305 0 63.3229 0C58.5152 0 54.6179 3.89736 54.6179 8.705C54.6179 13.5126 58.5152 17.41 63.3229 17.41Z" fill="#7BD53D" fill-opacity="0.49"/>
<path d="M8.705 44.734C13.5126 44.734 17.41 40.8367 17.41 36.029C17.41 31.2214 13.5126 27.324 8.705 27.324C3.89736 27.324 0 31.2214 0 36.029C0 40.8367 3.89736 44.734 8.705 44.734Z" fill="#7BD53D" fill-opacity="0.49"/>
<path d="M36.029 44.734C40.8367 44.734 44.734 40.8367 44.734 36.029C44.734 31.2214 40.8367 27.324 36.029 27.324C31.2214 27.324 27.324 31.2214 27.324 36.029C27.324 40.8367 31.2214 44.734 36.029 44.734Z" fill="#7BD53D" fill-opacity="0.49"/>
<path d="M63.3229 44.734C68.1305 44.734 72.0279 40.8367 72.0279 36.029C72.0279 31.2214 68.1305 27.324 63.3229 27.324C58.5152 27.324 54.6179 31.2214 54.6179 36.029C54.6179 40.8367 58.5152 44.734 63.3229 44.734Z" fill="#7BD53D" fill-opacity="0.49"/>
<path d="M8.705 72.0279C13.5126 72.0279 17.41 68.1305 17.41 63.3229C17.41 58.5152 13.5126 54.6179 8.705 54.6179C3.89736 54.6179 0 58.5152 0 63.3229C0 68.1305 3.89736 72.0279 8.705 72.0279Z" fill="#7BD53D" fill-opacity="0.49"/>
<path d="M36.029 72.0279C40.8367 72.0279 44.734 68.1305 44.734 63.3229C44.734 58.5152 40.8367 54.6179 36.029 54.6179C31.2214 54.6179 27.324 58.5152 27.324 63.3229C27.324 68.1305 31.2214 72.0279 36.029 72.0279Z" fill="#7BD53D" fill-opacity="0.49"/>
<path d="M63.3229 72.0279C68.1305 72.0279 72.0279 68.1305 72.0279 63.3229C72.0279 58.5152 68.1305 54.6179 63.3229 54.6179C58.5152 54.6179 54.6179 58.5152 54.6179 63.3229C54.6179 68.1305 58.5152 72.0279 63.3229 72.0279Z" fill="#7BD53D" fill-opacity="0.49"/>
<path d="M90.6469 17.41C95.4545 17.41 99.3519 13.5126 99.3519 8.705C99.3519 3.89736 95.4545 0 90.6469 0C85.8393 0 81.9419 3.89736 81.9419 8.705C81.9419 13.5126 85.8393 17.41 90.6469 17.41Z" fill="#7BD53D" fill-opacity="0.49"/>
<path d="M117.971 17.41C122.779 17.41 126.676 13.5126 126.676 8.705C126.676 3.89736 122.779 0 117.971 0C113.163 0 109.266 3.89736 109.266 8.705C109.266 13.5126 113.163 17.41 117.971 17.41Z" fill="#7BD53D" fill-opacity="0.49"/>
<path d="M145.295 17.41C150.103 17.41 154 13.5126 154 8.705C154 3.89736 150.103 0 145.295 0C140.487 0 136.59 3.89736 136.59 8.705C136.59 13.5126 140.487 17.41 145.295 17.41Z" fill="#7BD53D" fill-opacity="0.49"/>
<path d="M90.6469 44.734C95.4545 44.734 99.3519 40.8367 99.3519 36.029C99.3519 31.2214 95.4545 27.324 90.6469 27.324C85.8393 27.324 81.9419 31.2214 81.9419 36.029C81.9419 40.8367 85.8393 44.734 90.6469 44.734Z" fill="#7BD53D" fill-opacity="0.49"/>
<path d="M117.971 44.734C122.779 44.734 126.676 40.8367 126.676 36.029C126.676 31.2214 122.779 27.324 117.971 27.324C113.163 27.324 109.266 31.2214 109.266 36.029C109.266 40.8367 113.163 44.734 117.971 44.734Z" fill="#7BD53D" fill-opacity="0.49"/>
<path d="M145.295 44.734C150.103 44.734 154 40.8367 154 36.029C154 31.2214 150.103 27.324 145.295 27.324C140.487 27.324 136.59 31.2214 136.59 36.029C136.59 40.8367 140.487 44.734 145.295 44.734Z" fill="#7BD53D" fill-opacity="0.49"/>
<path d="M90.6469 72.0279C95.4545 72.0279 99.3519 68.1305 99.3519 63.3229C99.3519 58.5152 95.4545 54.6179 90.6469 54.6179C85.8393 54.6179 81.9419 58.5152 81.9419 63.3229C81.9419 68.1305 85.8393 72.0279 90.6469 72.0279Z" fill="#7BD53D" fill-opacity="0.49"/>
<path d="M117.971 72.0279C122.779 72.0279 126.676 68.1305 126.676 63.3229C126.676 58.5152 122.779 54.6179 117.971 54.6179C113.163 54.6179 109.266 58.5152 109.266 63.3229C109.266 68.1305 113.163 72.0279 117.971 72.0279Z" fill="#7BD53D" fill-opacity="0.49"/>
<path d="M145.295 72.0279C150.103 72.0279 154 68.1305 154 63.3229C154 58.5152 150.103 54.6179 145.295 54.6179C140.487 54.6179 136.59 58.5152 136.59 63.3229C136.59 68.1305 140.487 72.0279 145.295 72.0279Z" fill="#7BD53D" fill-opacity="0.49"/>
<path d="M8.705 99.3519C13.5126 99.3519 17.41 95.4545 17.41 90.6469C17.41 85.8393 13.5126 81.9419 8.705 81.9419C3.89736 81.9419 0 85.8393 0 90.6469C0 95.4545 3.89736 99.3519 8.705 99.3519Z" fill="#7BD53D" fill-opacity="0.49"/>
<path d="M36.029 99.3519C40.8367 99.3519 44.734 95.4545 44.734 90.6469C44.734 85.8393 40.8367 81.9419 36.029 81.9419C31.2214 81.9419 27.324 85.8393 27.324 90.6469C27.324 95.4545 31.2214 99.3519 36.029 99.3519Z" fill="#7BD53D" fill-opacity="0.49"/>
<path d="M63.3229 99.3519C68.1305 99.3519 72.0279 95.4545 72.0279 90.6469C72.0279 85.8393 68.1305 81.9419 63.3229 81.9419C58.5152 81.9419 54.6179 85.8393 54.6179 90.6469C54.6179 95.4545 58.5152 99.3519 63.3229 99.3519Z" fill="#7BD53D" fill-opacity="0.49"/>
<path d="M8.705 126.676C13.5126 126.676 17.41 122.779 17.41 117.971C17.41 113.163 13.5126 109.266 8.705 109.266C3.89736 109.266 0 113.163 0 117.971C0 122.779 3.89736 126.676 8.705 126.676Z" fill="#7BD53D" fill-opacity="0.49"/>
<path d="M36.029 126.676C40.8367 126.676 44.734 122.779 44.734 117.971C44.734 113.163 40.8367 109.266 36.029 109.266C31.2214 109.266 27.324 113.163 27.324 117.971C27.324 122.779 31.2214 126.676 36.029 126.676Z" fill="#7BD53D" fill-opacity="0.49"/>
<path d="M63.3229 126.676C68.1305 126.676 72.0279 122.779 72.0279 117.971C72.0279 113.163 68.1305 109.266 63.3229 109.266C58.5152 109.266 54.6179 113.163 54.6179 117.971C54.6179 122.779 58.5152 126.676 63.3229 126.676Z" fill="#7BD53D" fill-opacity="0.49"/>
<path d="M8.705 154C13.5126 154 17.41 150.103 17.41 145.295C17.41 140.487 13.5126 136.59 8.705 136.59C3.89736 136.59 0 140.487 0 145.295C0 150.103 3.89736 154 8.705 154Z" fill="#7BD53D" fill-opacity="0.49"/>
<path d="M36.029 154C40.8367 154 44.734 150.103 44.734 145.295C44.734 140.487 40.8367 136.59 36.029 136.59C31.2214 136.59 27.324 140.487 27.324 145.295C27.324 150.103 31.2214 154 36.029 154Z" fill="#7BD53D" fill-opacity="0.49"/>
<path d="M63.3229 154C68.1305 154 72.0279 150.103 72.0279 145.295C72.0279 140.487 68.1305 136.59 63.3229 136.59C58.5152 136.59 54.6179 140.487 54.6179 145.295C54.6179 150.103 58.5152 154 63.3229 154Z" fill="#7BD53D" fill-opacity="0.49"/>
<path d="M90.6469 99.3519C95.4545 99.3519 99.3519 95.4545 99.3519 90.6469C99.3519 85.8393 95.4545 81.9419 90.6469 81.9419C85.8393 81.9419 81.9419 85.8393 81.9419 90.6469C81.9419 95.4545 85.8393 99.3519 90.6469 99.3519Z" fill="#7BD53D" fill-opacity="0.49"/>
<path d="M117.971 99.3519C122.779 99.3519 126.676 95.4545 126.676 90.6469C126.676 85.8393 122.779 81.9419 117.971 81.9419C113.163 81.9419 109.266 85.8393 109.266 90.6469C109.266 95.4545 113.163 99.3519 117.971 99.3519Z" fill="#7BD53D" fill-opacity="0.49"/>
<path d="M145.295 99.3519C150.103 99.3519 154 95.4545 154 90.6469C154 85.8393 150.103 81.9419 145.295 81.9419C140.487 81.9419 136.59 85.8393 136.59 90.6469C136.59 95.4545 140.487 99.3519 145.295 99.3519Z" fill="#7BD53D" fill-opacity="0.49"/>
<path d="M90.6469 126.676C95.4545 126.676 99.3519 122.779 99.3519 117.971C99.3519 113.163 95.4545 109.266 90.6469 109.266C85.8393 109.266 81.9419 113.163 81.9419 117.971C81.9419 122.779 85.8393 126.676 90.6469 126.676Z" fill="#7BD53D" fill-opacity="0.49"/>
<path d="M117.971 126.676C122.779 126.676 126.676 122.779 126.676 117.971C126.676 113.163 122.779 109.266 117.971 109.266C113.163 109.266 109.266 113.163 109.266 117.971C109.266 122.779 113.163 126.676 117.971 126.676Z" fill="#7BD53D" fill-opacity="0.49"/>
<path d="M145.295 126.676C150.103 126.676 154 122.779 154 117.971C154 113.163 150.103 109.266 145.295 109.266C140.487 109.266 136.59 113.163 136.59 117.971C136.59 122.779 140.487 126.676 145.295 126.676Z" fill="#7BD53D" fill-opacity="0.49"/>
<path d="M90.6469 154C95.4545 154 99.3519 150.103 99.3519 145.295C99.3519 140.487 95.4545 136.59 90.6469 136.59C85.8393 136.59 81.9419 140.487 81.9419 145.295C81.9419 150.103 85.8393 154 90.6469 154Z" fill="#7BD53D" fill-opacity="0.49"/>
<path d="M117.971 154C122.779 154 126.676 150.103 126.676 145.295C126.676 140.487 122.779 136.59 117.971 136.59C113.163 136.59 109.266 140.487 109.266 145.295C109.266 150.103 113.163 154 117.971 154Z" fill="#7BD53D" fill-opacity="0.49"/>
<path d="M145.295 154C150.103 154 154 150.103 154 145.295C154 140.487 150.103 136.59 145.295 136.59C140.487 136.59 136.59 140.487 136.59 145.295C136.59 150.103 140.487 154 145.295 154Z" fill="#7BD53D" fill-opacity="0.49"/>
</g>
<defs>
<clipPath id="clip0_962_23">
<rect width="154" height="154" fill="white"/>
</clipPath>
</defs>
</svg>
