<svg width="75" height="73" viewBox="0 0 75 73" fill="none" xmlns="http://www.w3.org/2000/svg">
<path d="M37.5152 15C17.6227 15 7.82852 34.1321 7.4331 34.9229L6.73352 36.2917L7.40269 37.6604C7.82852 38.4513 17.6227 57.5833 37.5152 57.5833C57.4077 57.5833 67.2019 38.4513 67.5973 37.6604L68.2664 36.2917L67.5973 34.9229C67.2019 34.1321 57.4077 15 37.5152 15ZM37.5152 51.5C24.1927 51.5 16.2235 40.2458 13.6381 36.2917C16.2235 32.3375 24.1927 21.0833 37.5152 21.0833C50.8377 21.0833 58.8069 32.3375 61.3923 36.2917C58.8069 40.2458 50.8377 51.5 37.5152 51.5Z" fill="white"/>
<path d="M37.5152 24.125C35.1088 24.125 32.7565 24.8386 30.7557 26.1755C28.7549 27.5123 27.1955 29.4125 26.2746 31.6357C25.3538 33.8588 25.1128 36.3052 25.5823 38.6653C26.0517 41.0254 27.2105 43.1933 28.9121 44.8948C30.6136 46.5963 32.7815 47.7551 35.1416 48.2246C37.5017 48.694 39.948 48.4531 42.1712 47.5322C44.3943 46.6113 46.2945 45.0519 47.6314 43.0511C48.9683 41.0503 49.6818 38.698 49.6818 36.2917C49.6818 33.0649 48.4 29.9702 46.1183 27.6885C43.8366 25.4068 40.742 24.125 37.5152 24.125ZM37.5152 42.375C36.312 42.375 35.1359 42.0182 34.1355 41.3498C33.1351 40.6813 32.3553 39.7312 31.8949 38.6197C31.4345 37.5081 31.314 36.2849 31.5487 35.1049C31.7835 33.9248 32.3628 32.8409 33.2136 31.9901C34.0644 31.1393 35.1483 30.5599 36.3284 30.3252C37.5084 30.0905 38.7316 30.211 39.8432 30.6714C40.9548 31.1318 41.9048 31.9115 42.5733 32.9119C43.2417 33.9123 43.5985 35.0885 43.5985 36.2917C43.5985 37.9051 42.9576 39.4524 41.8167 40.5932C40.6759 41.7341 39.1286 42.375 37.5152 42.375Z" fill="white"/>
</svg>
