<svg width="160" height="160" viewBox="0 0 160 160" fill="none" xmlns="http://www.w3.org/2000/svg">
<g clip-path="url(#clip0_963_99)">
<path d="M79.9887 8.41986C119.45 8.41986 151.559 40.5333 151.559 80C151.559 119.467 119.45 151.58 79.9887 151.58C40.5276 151.58 8.41866 119.467 8.41866 80C8.41866 40.5333 40.5276 8.41986 79.9887 8.41986ZM79.9887 0C35.8077 0 0 35.8128 0 80C0 124.187 35.8077 160 79.9887 160C124.17 160 159.977 124.187 159.977 80C160 35.8128 124.17 0 79.9887 0Z" fill="url(#paint0_linear_963_99)"/>
<path d="M80.1474 17.6793C114.594 17.6793 142.618 45.7077 142.618 80.136C142.618 114.587 114.594 142.593 80.1474 142.593C45.7013 142.593 17.6769 114.564 17.6769 80.136C17.6769 45.7077 45.7013 17.6793 80.1474 17.6793ZM80.1474 8.44241C40.5502 8.44241 8.46399 40.5332 8.46399 80.136C8.46399 119.739 40.5729 151.83 80.1474 151.83C119.745 151.83 151.831 119.739 151.831 80.136C151.831 40.5559 119.745 8.44241 80.1474 8.44241Z" fill="url(#paint1_radial_963_99)"/>
<mask id="mask0_963_99" style="mask-type:alpha" maskUnits="userSpaceOnUse" x="-13" y="-15" width="192" height="192">
<path d="M83.0293 -14.1163V81.4298L66.4416 -12.6638L83.0293 -14.1163Z" fill="white"/>
<path d="M66.4416 -12.664L83.0294 81.4296L50.3531 -8.35198L66.4416 -12.664Z" fill="white"/>
<path d="M50.3531 -8.35175L83.0293 81.4298L35.2631 -1.31628L50.3531 -8.35175Z" fill="white"/>
<path d="M35.2631 -1.31644L83.0294 81.4297L21.6026 8.23817L35.2631 -1.31644Z" fill="white"/>
<path d="M21.6026 8.2384L83.0294 81.4299L9.82556 20.0171L21.6026 8.2384Z" fill="white"/>
<path d="M9.82553 20.017L83.0293 81.4298L0.272278 33.6567L9.82553 20.017Z" fill="white"/>
<path d="M0.272316 33.6568L83.0294 81.4299L-6.76215 48.749L0.272316 33.6568Z" fill="white"/>
<path d="M-6.76216 48.7488L83.0294 81.4297L-11.0736 64.8396L-6.76216 48.7488Z" fill="white"/>
<path d="M-11.0736 64.8398L83.0294 81.4298H-12.5259L-11.0736 64.8398Z" fill="white"/>
<path d="M-12.5259 81.43H83.0294L-11.0736 98.0427L-12.5259 81.43Z" fill="white"/>
<path d="M-11.0736 98.0427L83.0294 81.43L-6.76216 114.134L-11.0736 98.0427Z" fill="white"/>
<path d="M-6.76215 114.134L83.0294 81.43L0.272316 129.226L-6.76215 114.134Z" fill="white"/>
<path d="M0.272278 129.226L83.0293 81.43L9.82553 142.865L0.272278 129.226Z" fill="white"/>
<path d="M9.82556 142.865L83.0294 81.43L21.6026 154.644L9.82556 142.865Z" fill="white"/>
<path d="M21.6026 154.644L83.0294 81.43L35.2631 164.199L21.6026 154.644Z" fill="white"/>
<path d="M35.2631 164.199L83.0293 81.43L50.3531 171.234L35.2631 164.199Z" fill="white"/>
<path d="M50.3531 171.234L83.0294 81.43L66.4416 175.546L50.3531 171.234Z" fill="white"/>
<path d="M66.4416 175.546L83.0293 81.43V176.999L66.4416 175.546Z" fill="white"/>
<path d="M83.0293 176.999V81.43L99.617 175.546L83.0293 176.999Z" fill="white"/>
<path d="M99.617 175.546L83.0293 81.43L115.706 171.234L99.617 175.546Z" fill="white"/>
<path d="M115.706 171.234L83.0293 81.43L130.796 164.199L115.706 171.234Z" fill="white"/>
<path d="M130.796 164.199L83.0293 81.43L144.433 154.644L130.796 164.199Z" fill="white"/>
<path d="M144.433 154.644L83.0293 81.43L156.21 142.865L144.433 154.644Z" fill="white"/>
<path d="M156.21 142.865L83.0293 81.43L165.764 129.226L156.21 142.865Z" fill="white"/>
<path d="M165.764 129.226L83.0293 81.43L172.798 114.134L165.764 129.226Z" fill="white"/>
<path d="M172.798 114.134L83.0293 81.43L177.11 98.0427L172.798 114.134Z" fill="white"/>
<path d="M177.11 98.0427L83.0293 81.43H178.562L177.11 98.0427Z" fill="white"/>
<path d="M178.562 81.4298H83.0293L177.11 64.8398L178.562 81.4298Z" fill="white"/>
</mask>
<g mask="url(#mask0_963_99)">
<path d="M80.1474 17.6793C114.594 17.6793 142.618 45.7077 142.618 80.136C142.618 114.587 114.594 142.593 80.1474 142.593C45.7013 142.593 17.6769 114.564 17.6769 80.136C17.6769 45.7077 45.7013 17.6793 80.1474 17.6793ZM80.1474 8.44241C40.5502 8.44241 8.46399 40.5332 8.46399 80.136C8.46399 119.739 40.5729 151.83 80.1474 151.83C119.745 151.83 151.831 119.739 151.831 80.136C151.831 40.5559 119.745 8.44241 80.1474 8.44241Z" fill="#30932E"/>
<path d="M80.2836 24.3064C111.144 24.3064 136.242 49.4072 136.242 80.2724C136.242 111.138 111.144 136.238 80.2836 136.238C49.4228 136.238 24.3256 111.138 24.3256 80.2724C24.3256 49.4298 49.4228 24.3064 80.2836 24.3064ZM80.2836 17.7249C45.724 17.7249 17.7223 45.7306 17.7223 80.2724C17.7223 114.814 45.724 142.82 80.2836 142.82C114.821 142.82 142.822 114.814 142.822 80.2724C142.822 45.7306 114.821 17.7249 80.2836 17.7249Z" fill="url(#paint2_linear_963_99)"/>
</g>
<path d="M60.7041 67.0938L47.9541 97H39.6103L52.3838 68.9688H36.1181V62.875H60.7041V67.0938ZM90.1575 83.0547C90.1575 87.6641 89.1184 91.2188 87.0403 93.7188C84.9778 96.2188 82.0638 97.4688 78.2981 97.4688C74.5013 97.4688 71.5638 96.2109 69.4856 93.6953C67.4075 91.1797 66.3684 87.6328 66.3684 83.0547V76.8203C66.3684 72.2109 67.3997 68.6562 69.4622 66.1562C71.5403 63.6562 74.47 62.4062 78.2513 62.4062C82.0325 62.4062 84.9622 63.6641 87.0403 66.1797C89.1184 68.6953 90.1575 72.25 90.1575 76.8438V83.0547ZM82.2591 75.8125C82.2591 73.3594 81.9388 71.5312 81.2981 70.3281C80.6575 69.1094 79.6419 68.5 78.2513 68.5C76.8919 68.5 75.8997 69.0625 75.2747 70.1875C74.6653 71.3125 74.3372 73.0156 74.2903 75.2969V84.0156C74.2903 86.5625 74.6106 88.4297 75.2513 89.6172C75.8919 90.7891 76.9075 91.375 78.2981 91.375C79.6419 91.375 80.6341 90.8047 81.2747 89.6641C81.9153 88.5078 82.2434 86.7031 82.2591 84.25V75.8125ZM95.9625 69.4375C95.9625 67.3281 96.65 65.625 98.025 64.3281C99.4 63.0312 101.244 62.3828 103.556 62.3828C105.9 62.3828 107.752 63.0312 109.111 64.3281C110.47 65.6094 111.15 67.3516 111.15 69.5547V71.2422C111.15 73.3516 110.47 75.0469 109.111 76.3281C107.752 77.6094 105.916 78.25 103.603 78.25C101.306 78.25 99.4547 77.6172 98.0484 76.3516C96.6578 75.0703 95.9625 73.3203 95.9625 71.1016V69.4375ZM101.048 71.2422C101.048 72.0547 101.275 72.7188 101.728 73.2344C102.181 73.7344 102.806 73.9844 103.603 73.9844C105.244 73.9844 106.064 72.9375 106.064 70.8438V69.4375C106.064 68.625 105.845 67.9609 105.408 67.4453C104.97 66.9141 104.353 66.6484 103.556 66.6484C102.791 66.6484 102.181 66.9062 101.728 67.4219C101.275 67.9219 101.048 68.6094 101.048 69.4844V71.2422ZM112.181 88.6328C112.181 86.5078 112.869 84.8047 114.244 83.5234C115.634 82.2422 117.478 81.6016 119.775 81.6016C122.103 81.6016 123.955 82.2344 125.33 83.5C126.705 84.7656 127.392 86.5312 127.392 88.7969V90.4375C127.392 92.5625 126.713 94.2656 125.353 95.5469C123.994 96.8281 122.15 97.4688 119.822 97.4688C117.525 97.4688 115.673 96.8359 114.267 95.5703C112.877 94.2891 112.181 92.5391 112.181 90.3203V88.6328ZM117.244 90.4375C117.244 91.1719 117.494 91.8203 117.994 92.3828C118.494 92.9297 119.103 93.2031 119.822 93.2031C121.338 93.2031 122.158 92.4844 122.283 91.0469L122.306 88.6328C122.306 87.8047 122.08 87.1406 121.627 86.6406C121.173 86.125 120.556 85.8672 119.775 85.8672C119.025 85.8672 118.423 86.1094 117.97 86.5938C117.517 87.0625 117.275 87.7031 117.244 88.5156V90.4375ZM105.103 94.4453L101.423 92.5938L118.088 65.9219L121.767 67.7734L105.103 94.4453Z" fill="#30932E"/>
</g>
<defs>
<linearGradient id="paint0_linear_963_99" x1="28.7222" y1="18.5915" x2="131.286" y2="141.398" gradientUnits="userSpaceOnUse">
<stop stop-color="#FFD600"/>
<stop offset="0.4347" stop-color="#DEDEDE"/>
<stop offset="0.7838" stop-color="#F6F6F6"/>
<stop offset="1" stop-color="white"/>
</linearGradient>
<radialGradient id="paint1_radial_963_99" cx="0" cy="0" r="1" gradientUnits="userSpaceOnUse" gradientTransform="translate(80.1405 80.1463) scale(71.6903 71.7005)">
<stop offset="0.8108" stop-color="#FFD600"/>
<stop offset="0.842" stop-color="#565656"/>
<stop offset="0.8594" stop-color="#5E5E5E"/>
<stop offset="0.8733" stop-color="#6C6C6C"/>
<stop offset="0.8855" stop-color="#808080"/>
<stop offset="0.8965" stop-color="#999999"/>
<stop offset="0.9066" stop-color="#B9B9B9"/>
<stop offset="0.9159" stop-color="#DDDDDD"/>
<stop offset="0.9195" stop-color="#EDEDED"/>
<stop offset="0.9345" stop-color="#EAEAEA"/>
<stop offset="0.9475" stop-color="#DFDFDF"/>
<stop offset="0.9597" stop-color="#CDCDCD"/>
<stop offset="0.9715" stop-color="#B4B4B4"/>
<stop offset="0.9829" stop-color="#949494"/>
<stop offset="0.9939" stop-color="#6D6D6D"/>
<stop offset="1" stop-color="#545454"/>
</radialGradient>
<linearGradient id="paint2_linear_963_99" x1="40.184" y1="32.2649" x2="120.378" y2="128.286" gradientUnits="userSpaceOnUse">
<stop stop-color="#FFD600" stop-opacity="0.42"/>
<stop offset="0.2162" stop-color="#FFD600" stop-opacity="0.42"/>
<stop offset="0.5653" stop-color="#FFD600" stop-opacity="0.42"/>
<stop offset="1" stop-color="#B8B8B8"/>
<stop offset="1" stop-color="#FFD600"/>
</linearGradient>
<clipPath id="clip0_963_99">
<rect width="160" height="160" rx="10" fill="white"/>
</clipPath>
</defs>
</svg>
