<svg width="64" height="64" viewBox="0 0 64 64" fill="none" xmlns="http://www.w3.org/2000/svg">
<g clip-path="url(#clip0_29_146)">
<path d="M56.94 48.43C60.1624 43.5563 61.8805 37.8427 61.8805 32C61.8805 26.1574 60.1624 20.4437 56.94 15.57L69.06 3.45002C69.3409 3.16877 69.4987 2.78752 69.4987 2.39002C69.4987 1.99252 69.3409 1.61127 69.06 1.33002L62.67 -5.05998C62.3887 -5.34088 62.0075 -5.49866 61.61 -5.49866C61.2125 -5.49866 60.8312 -5.34088 60.55 -5.05998L48.43 7.06002C43.5563 3.83764 37.8426 2.11955 32 2.11955C26.1573 2.11955 20.4437 3.83764 15.57 7.06002L3.44999 -5.05998C3.16874 -5.34088 2.78749 -5.49866 2.38999 -5.49866C1.99249 -5.49866 1.61124 -5.34088 1.32999 -5.05998L-5.06001 1.33002C-5.34091 1.61127 -5.49869 1.99252 -5.49869 2.39002C-5.49869 2.78752 -5.34091 3.16877 -5.06001 3.45002L7.05999 15.57C3.83761 20.4437 2.11952 26.1574 2.11952 32C2.11952 37.8427 3.83761 43.5563 7.05999 48.43L-5.06001 60.55C-5.34091 60.8313 -5.49869 61.2125 -5.49869 61.61C-5.49869 62.0075 -5.34091 62.3888 -5.06001 62.67L1.32999 69.06C1.61124 69.3409 1.99249 69.4987 2.38999 69.4987C2.78749 69.4987 3.16874 69.3409 3.44999 69.06L15.57 56.94C20.4437 60.1624 26.1573 61.8805 32 61.8805C37.8426 61.8805 43.5563 60.1624 48.43 56.94L60.55 69.06C60.8312 69.3409 61.2125 69.4987 61.61 69.4987C62.0075 69.4987 62.3887 69.3409 62.67 69.06L69.06 62.67C69.3409 62.3888 69.4987 62.0075 69.4987 61.61C69.4987 61.2125 69.3409 60.8313 69.06 60.55L56.94 48.43ZM61.61 65.88L49.67 53.94C49.4172 53.6885 49.0831 53.5353 48.7276 53.5078C48.3721 53.4803 48.0184 53.5804 47.73 53.79C43.1571 57.1054 37.6533 58.8907 32.005 58.8907C26.3567 58.8907 20.8529 57.1054 16.28 53.79C15.9916 53.5804 15.6379 53.4803 15.2824 53.5078C14.9269 53.5353 14.5928 53.6885 14.34 53.94L2.38999 65.88L-1.88001 61.61L10.06 49.67C10.3115 49.4173 10.4647 49.0832 10.4922 48.7276C10.5197 48.3721 10.4197 48.0185 10.21 47.73C6.89459 43.1571 5.10936 37.6533 5.10936 32.005C5.10936 26.3567 6.89459 20.8529 10.21 16.28C10.4197 15.9916 10.5197 15.6379 10.4922 15.2824C10.4647 14.9269 10.3115 14.5928 10.06 14.34L-1.88001 2.39002L2.38999 -1.87998L14.33 10.06C14.5828 10.3115 14.9169 10.4648 15.2724 10.4923C15.6279 10.5197 15.9816 10.4197 16.27 10.21C20.8429 6.89462 26.3467 5.10939 31.995 5.10939C37.6433 5.10939 43.1471 6.89462 47.72 10.21C48.0084 10.4197 48.3621 10.5197 48.7176 10.4923C49.0731 10.4648 49.4072 10.3115 49.66 10.06L61.61 -1.87998L65.88 2.39002L53.94 14.33C53.6885 14.5828 53.5352 14.9169 53.5078 15.2724C53.4803 15.6279 53.5803 15.9816 53.79 16.27C57.1054 20.8429 58.8906 26.3467 58.8906 31.995C58.8906 37.6433 57.1054 43.1471 53.79 47.72C53.5803 48.0084 53.4803 48.3621 53.5078 48.7176C53.5352 49.0732 53.6885 49.4073 53.94 49.66L65.88 61.61L61.61 65.88Z" fill="white"/>
<path d="M32 11.16C27.8783 11.16 23.8491 12.3823 20.4219 14.6722C16.9948 16.9621 14.3237 20.2169 12.7464 24.0249C11.169 27.8329 10.7563 32.0232 11.5604 36.0657C12.3646 40.1083 14.3494 43.8216 17.2639 46.7361C20.1784 49.6507 23.8918 51.6355 27.9343 52.4396C31.9769 53.2437 36.1671 52.831 39.9751 51.2537C43.7831 49.6763 47.0379 47.0052 49.3278 43.5781C51.6178 40.151 52.84 36.1218 52.84 32C52.8321 26.4754 50.6339 21.1792 46.7274 17.2727C42.8208 13.3662 37.5247 11.168 32 11.16ZM32 49.85C28.472 49.85 25.0232 48.804 22.0897 46.8441C19.1561 44.8843 16.8695 42.0987 15.519 38.8394C14.1684 35.5802 13.8145 31.9936 14.5021 28.5333C15.1896 25.073 16.8877 21.8942 19.3817 19.3988C21.8757 16.9034 25.0535 15.2035 28.5135 14.514C31.9734 13.8246 35.5602 14.1764 38.8202 15.5252C42.0802 16.8739 44.8671 19.1589 46.8286 22.0914C48.7901 25.0238 49.838 28.472 49.84 32C49.8347 36.7299 47.9535 41.2645 44.609 44.609C41.2645 47.9535 36.7299 49.8347 32 49.84V49.85Z" fill="white"/>
</g>
<defs>
<clipPath id="clip0_29_146">
<rect width="64" height="64" fill="white"/>
</clipPath>
</defs>
</svg>
