<svg width="71" height="71" viewBox="0 0 71 71" fill="none" xmlns="http://www.w3.org/2000/svg">
<mask id="path-1-outside-1_30_172" maskUnits="userSpaceOnUse" x="3.92826" y="30.3312" width="63" height="30" fill="black">
<rect fill="white" x="3.92826" y="30.3312" width="63" height="30"/>
<path d="M64.2726 37.9603C63.8119 37.3083 63.1479 36.8275 62.3845 36.5934C61.6212 36.3593 60.8018 36.3852 60.0548 36.6669C59.9978 36.0583 59.7848 35.4748 59.4361 34.9727C58.8915 34.1964 58.0624 33.6663 57.1292 33.4979C56.1959 33.3294 55.2338 33.536 54.4521 34.0729L53.8616 34.4596C53.7934 33.8841 53.5859 33.3339 53.257 32.8568C52.7064 32.0789 51.8706 31.5501 50.9319 31.3855C49.9931 31.2209 49.0273 31.4339 48.2449 31.9781L48.1957 32.0202C43.4436 36.0131 37.6792 40.0693 36.203 40.0693C35.1134 40.0693 31.7813 38.2064 29.11 36.7091C25.7076 34.804 22.488 33.0044 20.6744 32.8568C17.2017 32.5897 6.61496 38.7406 5.43397 39.4436C5.31811 39.5115 5.21676 39.6015 5.13569 39.7085C5.05462 39.8155 4.99542 39.9375 4.96147 40.0674C4.92753 40.1973 4.9195 40.3326 4.93786 40.4656C4.95621 40.5986 5.00057 40.7267 5.06843 40.8425C5.13628 40.9584 5.22628 41.0597 5.33331 41.1408C5.44033 41.2219 5.56227 41.2811 5.69217 41.315C5.82208 41.349 5.95739 41.357 6.09039 41.3386C6.2234 41.3203 6.35148 41.2759 6.46734 41.2081C10.7765 38.6774 18.4178 34.7618 20.5267 34.8813C21.9327 34.9868 25.2296 36.8426 28.1469 38.4805C31.9992 40.6387 34.4737 41.9954 36.0272 42.0798C36.095 42.0865 36.1633 42.0865 36.2311 42.0798H43.2608C43.8761 42.0798 44.4661 42.3242 44.9012 42.7592C45.3362 43.1943 45.5806 43.7843 45.5806 44.3996C45.5806 45.0148 45.3362 45.6049 44.9012 46.0399C44.4661 46.4749 43.8761 46.7194 43.2608 46.7194H43.1905C43.1202 46.7194 36.2663 47.1974 33.4473 46.7194C30.7971 46.2765 27.4159 43.2748 27.3807 43.2467C27.1793 43.0658 26.9144 42.9724 26.6441 42.9869C26.3739 43.0014 26.1205 43.1227 25.9396 43.324C25.7588 43.5254 25.6653 43.7903 25.6798 44.0606C25.6943 44.3308 25.8156 44.5843 26.0169 44.7651C26.1716 44.9057 29.8762 48.1956 33.1099 48.7369C34.4707 48.916 35.8429 48.9935 37.2153 48.9689C40.1326 48.9689 43.1413 48.758 43.3311 48.7439C44.4069 48.6238 45.3995 48.1075 46.1157 47.2958C46.8318 46.484 47.2203 45.4348 47.2053 44.3524C47.1904 43.27 46.7732 42.2319 46.035 41.4401C45.2968 40.6484 44.2903 40.1597 43.2116 40.0693H40.8215C43.8109 38.1052 46.6839 35.9692 49.4259 33.6722C49.6784 33.498 49.9768 33.4025 50.2835 33.3977C50.5902 33.3929 50.8915 33.479 51.1494 33.6451C51.4073 33.8113 51.6102 34.05 51.7326 34.3313C51.8549 34.6126 51.8913 34.9239 51.837 35.2258C51.8022 35.4273 51.7277 35.6199 51.6179 35.7925C51.5081 35.965 51.3651 36.1141 51.1973 36.231L51.127 36.2873L51.0497 36.3505L50.9864 36.4279L50.9232 36.5122L50.881 36.5966L50.8318 36.688C50.8318 36.688 50.8318 36.7442 50.8318 36.7794C50.8302 36.8121 50.8302 36.845 50.8318 36.8778C50.8318 36.8778 50.8318 36.941 50.8318 36.9692C50.83 37.0043 50.83 37.0395 50.8318 37.0746C50.8318 37.0746 50.8318 37.1379 50.8318 37.173C50.8302 37.2058 50.8302 37.2386 50.8318 37.2714C50.8302 37.3042 50.8302 37.3371 50.8318 37.3698C50.8318 37.3698 50.8318 37.4331 50.8318 37.4612C50.8464 37.4949 50.8628 37.5277 50.881 37.5597L50.9161 37.6299L50.9513 37.6721C50.9852 37.7174 51.0228 37.7597 51.0638 37.7987L51.127 37.8479L51.2536 37.9322L51.3168 37.9603L51.4715 38.0166H51.5277C51.6002 38.0244 51.6732 38.0244 51.7457 38.0166C51.8288 38.015 51.9114 38.0032 51.9917 37.9814H52.055C52.1368 37.954 52.2147 37.9162 52.2869 37.869L55.5417 35.76C55.8802 35.5227 56.2991 35.4294 56.7063 35.5005C57.1136 35.5717 57.4759 35.8016 57.7139 36.1397C57.8312 36.3067 57.9145 36.4953 57.9589 36.6945C58.0033 36.8938 58.0081 37.0998 57.9728 37.3009C57.9375 37.502 57.863 37.6941 57.7534 37.8664C57.6439 38.0387 57.5014 38.1876 57.3343 38.3048L56.2868 39.0078C56.171 39.0881 56.0721 39.1904 55.9958 39.309C55.9195 39.4275 55.8673 39.5599 55.8421 39.6986C55.817 39.8373 55.8194 39.9796 55.8493 40.1174C55.8792 40.2552 55.9359 40.3857 56.0162 40.5016C56.0965 40.6174 56.1989 40.7163 56.3174 40.7926C56.4359 40.8689 56.5683 40.9211 56.7071 40.9463C56.8458 40.9714 56.9881 40.969 57.1258 40.9391C57.2636 40.9092 57.3942 40.8525 57.51 40.7722L58.5434 40.0693L60.4555 38.7828C60.622 38.6487 60.8144 38.5504 61.0207 38.4941C61.2269 38.4377 61.4426 38.4246 61.6542 38.4554C61.8657 38.4863 62.0687 38.5605 62.2503 38.6734C62.4318 38.7863 62.5882 38.9355 62.7094 39.1116C62.8307 39.2877 62.9143 39.4869 62.9551 39.6968C62.9958 39.9067 62.9928 40.1227 62.9462 40.3314C62.8995 40.5401 62.8104 40.7369 62.6842 40.9095C62.558 41.0821 62.3976 41.2268 62.2129 41.3346C51.127 49.1165 38.5509 57.1866 36.6951 57.2077C35.2891 57.2077 32.2804 55.394 29.5951 53.7983C26.5653 51.9916 23.7112 50.2834 21.6937 50.0233C17.6727 49.4891 11.4584 54.1287 10.7625 54.691C10.5481 54.856 10.408 55.0995 10.3731 55.3677C10.3381 55.636 10.4112 55.9072 10.5762 56.1216C10.7412 56.336 10.9846 56.4761 11.2529 56.511C11.5212 56.5459 11.7923 56.4729 12.0067 56.3079C13.7079 55.0003 18.7131 51.6823 21.4265 52.0408C23.0293 52.2517 25.9607 54.0021 28.5547 55.5557C31.7462 57.4607 34.7619 59.2533 36.6951 59.2533C40.0764 59.2533 59.5205 45.7211 63.4079 43.0077L63.4993 42.9303C64.2516 42.3669 64.7537 41.5316 64.8982 40.6028C65.0427 39.6741 64.8181 38.7257 64.2726 37.9603Z"/>
</mask>
<path d="M64.2726 37.9603C63.8119 37.3083 63.1479 36.8275 62.3845 36.5934C61.6212 36.3593 60.8018 36.3852 60.0548 36.6669C59.9978 36.0583 59.7848 35.4748 59.4361 34.9727C58.8915 34.1964 58.0624 33.6663 57.1292 33.4979C56.1959 33.3294 55.2338 33.536 54.4521 34.0729L53.8616 34.4596C53.7934 33.8841 53.5859 33.3339 53.257 32.8568C52.7064 32.0789 51.8706 31.5501 50.9319 31.3855C49.9931 31.2209 49.0273 31.4339 48.2449 31.9781L48.1957 32.0202C43.4436 36.0131 37.6792 40.0693 36.203 40.0693C35.1134 40.0693 31.7813 38.2064 29.11 36.7091C25.7076 34.804 22.488 33.0044 20.6744 32.8568C17.2017 32.5897 6.61496 38.7406 5.43397 39.4436C5.31811 39.5115 5.21676 39.6015 5.13569 39.7085C5.05462 39.8155 4.99542 39.9375 4.96147 40.0674C4.92753 40.1973 4.9195 40.3326 4.93786 40.4656C4.95621 40.5986 5.00057 40.7267 5.06843 40.8425C5.13628 40.9584 5.22628 41.0597 5.33331 41.1408C5.44033 41.2219 5.56227 41.2811 5.69217 41.315C5.82208 41.349 5.95739 41.357 6.09039 41.3386C6.2234 41.3203 6.35148 41.2759 6.46734 41.2081C10.7765 38.6774 18.4178 34.7618 20.5267 34.8813C21.9327 34.9868 25.2296 36.8426 28.1469 38.4805C31.9992 40.6387 34.4737 41.9954 36.0272 42.0798C36.095 42.0865 36.1633 42.0865 36.2311 42.0798H43.2608C43.8761 42.0798 44.4661 42.3242 44.9012 42.7592C45.3362 43.1943 45.5806 43.7843 45.5806 44.3996C45.5806 45.0148 45.3362 45.6049 44.9012 46.0399C44.4661 46.4749 43.8761 46.7194 43.2608 46.7194H43.1905C43.1202 46.7194 36.2663 47.1974 33.4473 46.7194C30.7971 46.2765 27.4159 43.2748 27.3807 43.2467C27.1793 43.0658 26.9144 42.9724 26.6441 42.9869C26.3739 43.0014 26.1205 43.1227 25.9396 43.324C25.7588 43.5254 25.6653 43.7903 25.6798 44.0606C25.6943 44.3308 25.8156 44.5843 26.0169 44.7651C26.1716 44.9057 29.8762 48.1956 33.1099 48.7369C34.4707 48.916 35.8429 48.9935 37.2153 48.9689C40.1326 48.9689 43.1413 48.758 43.3311 48.7439C44.4069 48.6238 45.3995 48.1075 46.1157 47.2958C46.8318 46.484 47.2203 45.4348 47.2053 44.3524C47.1904 43.27 46.7732 42.2319 46.035 41.4401C45.2968 40.6484 44.2903 40.1597 43.2116 40.0693H40.8215C43.8109 38.1052 46.6839 35.9692 49.4259 33.6722C49.6784 33.498 49.9768 33.4025 50.2835 33.3977C50.5902 33.3929 50.8915 33.479 51.1494 33.6451C51.4073 33.8113 51.6102 34.05 51.7326 34.3313C51.8549 34.6126 51.8913 34.9239 51.837 35.2258C51.8022 35.4273 51.7277 35.6199 51.6179 35.7925C51.5081 35.965 51.3651 36.1141 51.1973 36.231L51.127 36.2873L51.0497 36.3505L50.9864 36.4279L50.9232 36.5122L50.881 36.5966L50.8318 36.688C50.8318 36.688 50.8318 36.7442 50.8318 36.7794C50.8302 36.8121 50.8302 36.845 50.8318 36.8778C50.8318 36.8778 50.8318 36.941 50.8318 36.9692C50.83 37.0043 50.83 37.0395 50.8318 37.0746C50.8318 37.0746 50.8318 37.1379 50.8318 37.173C50.8302 37.2058 50.8302 37.2386 50.8318 37.2714C50.8302 37.3042 50.8302 37.3371 50.8318 37.3698C50.8318 37.3698 50.8318 37.4331 50.8318 37.4612C50.8464 37.4949 50.8628 37.5277 50.881 37.5597L50.9161 37.6299L50.9513 37.6721C50.9852 37.7174 51.0228 37.7597 51.0638 37.7987L51.127 37.8479L51.2536 37.9322L51.3168 37.9603L51.4715 38.0166H51.5277C51.6002 38.0244 51.6732 38.0244 51.7457 38.0166C51.8288 38.015 51.9114 38.0032 51.9917 37.9814H52.055C52.1368 37.954 52.2147 37.9162 52.2869 37.869L55.5417 35.76C55.8802 35.5227 56.2991 35.4294 56.7063 35.5005C57.1136 35.5717 57.4759 35.8016 57.7139 36.1397C57.8312 36.3067 57.9145 36.4953 57.9589 36.6945C58.0033 36.8938 58.0081 37.0998 57.9728 37.3009C57.9375 37.502 57.863 37.6941 57.7534 37.8664C57.6439 38.0387 57.5014 38.1876 57.3343 38.3048L56.2868 39.0078C56.171 39.0881 56.0721 39.1904 55.9958 39.309C55.9195 39.4275 55.8673 39.5599 55.8421 39.6986C55.817 39.8373 55.8194 39.9796 55.8493 40.1174C55.8792 40.2552 55.9359 40.3857 56.0162 40.5016C56.0965 40.6174 56.1989 40.7163 56.3174 40.7926C56.4359 40.8689 56.5683 40.9211 56.7071 40.9463C56.8458 40.9714 56.9881 40.969 57.1258 40.9391C57.2636 40.9092 57.3942 40.8525 57.51 40.7722L58.5434 40.0693L60.4555 38.7828C60.622 38.6487 60.8144 38.5504 61.0207 38.4941C61.2269 38.4377 61.4426 38.4246 61.6542 38.4554C61.8657 38.4863 62.0687 38.5605 62.2503 38.6734C62.4318 38.7863 62.5882 38.9355 62.7094 39.1116C62.8307 39.2877 62.9143 39.4869 62.9551 39.6968C62.9958 39.9067 62.9928 40.1227 62.9462 40.3314C62.8995 40.5401 62.8104 40.7369 62.6842 40.9095C62.558 41.0821 62.3976 41.2268 62.2129 41.3346C51.127 49.1165 38.5509 57.1866 36.6951 57.2077C35.2891 57.2077 32.2804 55.394 29.5951 53.7983C26.5653 51.9916 23.7112 50.2834 21.6937 50.0233C17.6727 49.4891 11.4584 54.1287 10.7625 54.691C10.5481 54.856 10.408 55.0995 10.3731 55.3677C10.3381 55.636 10.4112 55.9072 10.5762 56.1216C10.7412 56.336 10.9846 56.4761 11.2529 56.511C11.5212 56.5459 11.7923 56.4729 12.0067 56.3079C13.7079 55.0003 18.7131 51.6823 21.4265 52.0408C23.0293 52.2517 25.9607 54.0021 28.5547 55.5557C31.7462 57.4607 34.7619 59.2533 36.6951 59.2533C40.0764 59.2533 59.5205 45.7211 63.4079 43.0077L63.4993 42.9303C64.2516 42.3669 64.7537 41.5316 64.8982 40.6028C65.0427 39.6741 64.8181 38.7257 64.2726 37.9603Z" fill="white"/>
<path d="M64.2726 37.9603C63.8119 37.3083 63.1479 36.8275 62.3845 36.5934C61.6212 36.3593 60.8018 36.3852 60.0548 36.6669C59.9978 36.0583 59.7848 35.4748 59.4361 34.9727C58.8915 34.1964 58.0624 33.6663 57.1292 33.4979C56.1959 33.3294 55.2338 33.536 54.4521 34.0729L53.8616 34.4596C53.7934 33.8841 53.5859 33.3339 53.257 32.8568C52.7064 32.0789 51.8706 31.5501 50.9319 31.3855C49.9931 31.2209 49.0273 31.4339 48.2449 31.9781L48.1957 32.0202C43.4436 36.0131 37.6792 40.0693 36.203 40.0693C35.1134 40.0693 31.7813 38.2064 29.11 36.7091C25.7076 34.804 22.488 33.0044 20.6744 32.8568C17.2017 32.5897 6.61496 38.7406 5.43397 39.4436C5.31811 39.5115 5.21676 39.6015 5.13569 39.7085C5.05462 39.8155 4.99542 39.9375 4.96147 40.0674C4.92753 40.1973 4.9195 40.3326 4.93786 40.4656C4.95621 40.5986 5.00057 40.7267 5.06843 40.8425C5.13628 40.9584 5.22628 41.0597 5.33331 41.1408C5.44033 41.2219 5.56227 41.2811 5.69217 41.315C5.82208 41.349 5.95739 41.357 6.09039 41.3386C6.2234 41.3203 6.35148 41.2759 6.46734 41.2081C10.7765 38.6774 18.4178 34.7618 20.5267 34.8813C21.9327 34.9868 25.2296 36.8426 28.1469 38.4805C31.9992 40.6387 34.4737 41.9954 36.0272 42.0798C36.095 42.0865 36.1633 42.0865 36.2311 42.0798H43.2608C43.8761 42.0798 44.4661 42.3242 44.9012 42.7592C45.3362 43.1943 45.5806 43.7843 45.5806 44.3996C45.5806 45.0148 45.3362 45.6049 44.9012 46.0399C44.4661 46.4749 43.8761 46.7194 43.2608 46.7194H43.1905C43.1202 46.7194 36.2663 47.1974 33.4473 46.7194C30.7971 46.2765 27.4159 43.2748 27.3807 43.2467C27.1793 43.0658 26.9144 42.9724 26.6441 42.9869C26.3739 43.0014 26.1205 43.1227 25.9396 43.324C25.7588 43.5254 25.6653 43.7903 25.6798 44.0606C25.6943 44.3308 25.8156 44.5843 26.0169 44.7651C26.1716 44.9057 29.8762 48.1956 33.1099 48.7369C34.4707 48.916 35.8429 48.9935 37.2153 48.9689C40.1326 48.9689 43.1413 48.758 43.3311 48.7439C44.4069 48.6238 45.3995 48.1075 46.1157 47.2958C46.8318 46.484 47.2203 45.4348 47.2053 44.3524C47.1904 43.27 46.7732 42.2319 46.035 41.4401C45.2968 40.6484 44.2903 40.1597 43.2116 40.0693H40.8215C43.8109 38.1052 46.6839 35.9692 49.4259 33.6722C49.6784 33.498 49.9768 33.4025 50.2835 33.3977C50.5902 33.3929 50.8915 33.479 51.1494 33.6451C51.4073 33.8113 51.6102 34.05 51.7326 34.3313C51.8549 34.6126 51.8913 34.9239 51.837 35.2258C51.8022 35.4273 51.7277 35.6199 51.6179 35.7925C51.5081 35.965 51.3651 36.1141 51.1973 36.231L51.127 36.2873L51.0497 36.3505L50.9864 36.4279L50.9232 36.5122L50.881 36.5966L50.8318 36.688C50.8318 36.688 50.8318 36.7442 50.8318 36.7794C50.8302 36.8121 50.8302 36.845 50.8318 36.8778C50.8318 36.8778 50.8318 36.941 50.8318 36.9692C50.83 37.0043 50.83 37.0395 50.8318 37.0746C50.8318 37.0746 50.8318 37.1379 50.8318 37.173C50.8302 37.2058 50.8302 37.2386 50.8318 37.2714C50.8302 37.3042 50.8302 37.3371 50.8318 37.3698C50.8318 37.3698 50.8318 37.4331 50.8318 37.4612C50.8464 37.4949 50.8628 37.5277 50.881 37.5597L50.9161 37.6299L50.9513 37.6721C50.9852 37.7174 51.0228 37.7597 51.0638 37.7987L51.127 37.8479L51.2536 37.9322L51.3168 37.9603L51.4715 38.0166H51.5277C51.6002 38.0244 51.6732 38.0244 51.7457 38.0166C51.8288 38.015 51.9114 38.0032 51.9917 37.9814H52.055C52.1368 37.954 52.2147 37.9162 52.2869 37.869L55.5417 35.76C55.8802 35.5227 56.2991 35.4294 56.7063 35.5005C57.1136 35.5717 57.4759 35.8016 57.7139 36.1397C57.8312 36.3067 57.9145 36.4953 57.9589 36.6945C58.0033 36.8938 58.0081 37.0998 57.9728 37.3009C57.9375 37.502 57.863 37.6941 57.7534 37.8664C57.6439 38.0387 57.5014 38.1876 57.3343 38.3048L56.2868 39.0078C56.171 39.0881 56.0721 39.1904 55.9958 39.309C55.9195 39.4275 55.8673 39.5599 55.8421 39.6986C55.817 39.8373 55.8194 39.9796 55.8493 40.1174C55.8792 40.2552 55.9359 40.3857 56.0162 40.5016C56.0965 40.6174 56.1989 40.7163 56.3174 40.7926C56.4359 40.8689 56.5683 40.9211 56.7071 40.9463C56.8458 40.9714 56.9881 40.969 57.1258 40.9391C57.2636 40.9092 57.3942 40.8525 57.51 40.7722L58.5434 40.0693L60.4555 38.7828C60.622 38.6487 60.8144 38.5504 61.0207 38.4941C61.2269 38.4377 61.4426 38.4246 61.6542 38.4554C61.8657 38.4863 62.0687 38.5605 62.2503 38.6734C62.4318 38.7863 62.5882 38.9355 62.7094 39.1116C62.8307 39.2877 62.9143 39.4869 62.9551 39.6968C62.9958 39.9067 62.9928 40.1227 62.9462 40.3314C62.8995 40.5401 62.8104 40.7369 62.6842 40.9095C62.558 41.0821 62.3976 41.2268 62.2129 41.3346C51.127 49.1165 38.5509 57.1866 36.6951 57.2077C35.2891 57.2077 32.2804 55.394 29.5951 53.7983C26.5653 51.9916 23.7112 50.2834 21.6937 50.0233C17.6727 49.4891 11.4584 54.1287 10.7625 54.691C10.5481 54.856 10.408 55.0995 10.3731 55.3677C10.3381 55.636 10.4112 55.9072 10.5762 56.1216C10.7412 56.336 10.9846 56.4761 11.2529 56.511C11.5212 56.5459 11.7923 56.4729 12.0067 56.3079C13.7079 55.0003 18.7131 51.6823 21.4265 52.0408C23.0293 52.2517 25.9607 54.0021 28.5547 55.5557C31.7462 57.4607 34.7619 59.2533 36.6951 59.2533C40.0764 59.2533 59.5205 45.7211 63.4079 43.0077L63.4993 42.9303C64.2516 42.3669 64.7537 41.5316 64.8982 40.6028C65.0427 39.6741 64.8181 38.7257 64.2726 37.9603Z" stroke="white" stroke-width="2" mask="url(#path-1-outside-1_30_172)"/>
<path d="M28.1811 19.7262L28.1816 19.7262C29.7507 19.7276 31.285 19.2636 32.5903 18.3928C33.8956 17.5219 34.9132 16.2834 35.5144 14.8341C36.1156 13.3847 36.2732 11.7895 35.9675 10.2505C35.6617 8.71141 34.9063 7.29766 33.7967 6.18812C32.6872 5.07858 31.2735 4.32313 29.7344 4.01737C28.1954 3.71162 26.6002 3.8693 25.1508 4.47046C23.7014 5.07162 22.4629 6.08925 21.5921 7.39454C20.7213 8.69984 20.2572 10.2341 20.2587 11.8033L20.2587 11.8037C20.2627 13.9037 21.0986 15.9165 22.5835 17.4013C24.0684 18.8862 26.0812 19.7222 28.1811 19.7262ZM28.1824 6.911C29.1484 6.91106 30.0927 7.19754 30.8959 7.73423C31.6992 8.27097 32.3253 9.03387 32.695 9.92644C33.0647 10.819 33.1615 11.8012 32.973 12.7487C32.7845 13.6963 32.3193 14.5667 31.6361 15.2498C30.953 15.9329 30.0826 16.3982 29.1351 16.5866C28.1875 16.7751 27.2053 16.6784 26.3128 16.3087C25.4202 15.939 24.6573 15.3129 24.1206 14.5096C23.5839 13.7064 23.2974 12.7621 23.2973 11.796C23.2991 10.501 23.8144 9.25951 24.7301 8.34377C25.6458 7.42803 26.8873 6.91278 28.1824 6.911Z" fill="white" stroke="white"/>
<path d="M40.3426 11.8028L40.3426 11.8035C40.3446 13.4492 40.9993 15.0269 42.163 16.1906C43.3267 17.3543 44.9044 18.0089 46.5501 18.011H46.5507C47.7786 18.011 48.9788 17.6469 49.9998 16.9647C51.0207 16.2826 51.8164 15.313 52.2863 14.1786C52.7561 13.0442 52.8791 11.796 52.6395 10.5917C52.4 9.38745 51.8087 8.28127 50.9405 7.41305C50.0723 6.54482 48.9661 5.95356 47.7618 5.71402C46.5576 5.47447 45.3093 5.59742 44.175 6.06729C43.0406 6.53717 42.071 7.33288 41.3888 8.3538C40.7067 9.37472 40.3426 10.575 40.3426 11.8028ZM44.3095 9.56167C44.8554 9.0158 45.5799 8.6896 46.3456 8.63998L46.5497 8.64037C47.175 8.64157 47.7858 8.82807 48.3051 9.17629C48.8243 9.52452 49.2287 10.0188 49.4672 10.5968C49.7056 11.1748 49.7674 11.8105 49.6446 12.4235C49.5219 13.0366 49.2203 13.5995 48.7777 14.0412C48.3352 14.4829 47.7717 14.7835 47.1584 14.905C46.5451 15.0265 45.9096 14.9635 45.3321 14.724C44.7545 14.4845 44.261 14.0791 43.9138 13.5592C43.5665 13.0393 43.3812 12.4281 43.3812 11.8028C43.3812 10.9622 43.7151 10.1561 44.3095 9.56167Z" fill="white" stroke="white"/>
<path d="M29.1654 27.6965V27.697C29.1654 29.2655 29.6305 30.7987 30.5019 32.1029C31.3733 33.407 32.6118 34.4235 34.0609 35.0237C35.51 35.624 37.1046 35.781 38.6429 35.475C40.1812 35.169 41.5943 34.4137 42.7034 33.3046C43.8125 32.1955 44.5678 30.7825 44.8738 29.2441C45.1798 27.7058 45.0227 26.1113 44.4225 24.6622C43.8223 23.2131 42.8058 21.9745 41.5016 21.1031C40.1975 20.2317 38.6642 19.7666 37.0958 19.7666L37.0953 19.7666C34.9927 19.7686 32.9769 20.6047 31.4902 22.0914C30.0035 23.5781 29.1673 25.594 29.1654 27.6965ZM37.096 22.8122C38.0621 22.8123 39.0064 23.0988 39.8096 23.6355C40.6129 24.1722 41.239 24.9351 41.6087 25.8277C41.9784 26.7203 42.0751 27.7024 41.8866 28.65C41.6982 29.5975 41.2329 30.4679 40.5498 31.151C39.8667 31.8342 38.9963 32.2994 38.0487 32.4879C37.1012 32.6764 36.119 32.5796 35.2264 32.2099C34.3339 31.8402 33.571 31.2141 33.0342 30.4108C32.4975 29.6076 32.2111 28.6633 32.211 27.6973C32.2128 26.4022 32.728 25.1607 33.6438 24.245C34.5595 23.3293 35.801 22.814 37.096 22.8122Z" fill="white" stroke="white"/>
</svg>
