<svg width="160" height="160" viewBox="0 0 160 160" fill="none" xmlns="http://www.w3.org/2000/svg">
<g clip-path="url(#clip0_963_62)">
<path d="M79.9887 8.41986C119.45 8.41986 151.559 40.5333 151.559 80C151.559 119.467 119.45 151.58 79.9887 151.58C40.5276 151.58 8.41866 119.467 8.41866 80C8.41866 40.5333 40.5276 8.41986 79.9887 8.41986ZM79.9887 0C35.8077 0 0 35.8128 0 80C0 124.187 35.8077 160 79.9887 160C124.17 160 159.977 124.187 159.977 80C160 35.8128 124.17 0 79.9887 0Z" fill="url(#paint0_linear_963_62)"/>
<path d="M80.1474 17.6793C114.594 17.6793 142.618 45.7077 142.618 80.136C142.618 114.587 114.594 142.593 80.1474 142.593C45.7013 142.593 17.6769 114.564 17.6769 80.136C17.6769 45.7077 45.7013 17.6793 80.1474 17.6793ZM80.1474 8.44241C40.5502 8.44241 8.46399 40.5332 8.46399 80.136C8.46399 119.739 40.5729 151.83 80.1474 151.83C119.745 151.83 151.831 119.739 151.831 80.136C151.831 40.5559 119.745 8.44241 80.1474 8.44241Z" fill="url(#paint1_radial_963_62)"/>
<mask id="mask0_963_62" style="mask-type:alpha" maskUnits="userSpaceOnUse" x="-13" y="-15" width="192" height="192">
<path d="M83.0293 -14.1163V81.4298L66.4416 -12.6638L83.0293 -14.1163Z" fill="white"/>
<path d="M66.4416 -12.664L83.0294 81.4296L50.3531 -8.35198L66.4416 -12.664Z" fill="white"/>
<path d="M50.3531 -8.35175L83.0293 81.4298L35.2631 -1.31628L50.3531 -8.35175Z" fill="white"/>
<path d="M35.2631 -1.31644L83.0294 81.4297L21.6026 8.23817L35.2631 -1.31644Z" fill="white"/>
<path d="M21.6026 8.2384L83.0294 81.4299L9.82556 20.0171L21.6026 8.2384Z" fill="white"/>
<path d="M9.82553 20.017L83.0293 81.4298L0.272278 33.6567L9.82553 20.017Z" fill="white"/>
<path d="M0.272316 33.6568L83.0294 81.4299L-6.76215 48.749L0.272316 33.6568Z" fill="white"/>
<path d="M-6.76216 48.7488L83.0294 81.4297L-11.0736 64.8396L-6.76216 48.7488Z" fill="white"/>
<path d="M-11.0736 64.8398L83.0294 81.4298H-12.5259L-11.0736 64.8398Z" fill="white"/>
<path d="M-12.5259 81.43H83.0294L-11.0736 98.0427L-12.5259 81.43Z" fill="white"/>
<path d="M-11.0736 98.0427L83.0294 81.43L-6.76216 114.134L-11.0736 98.0427Z" fill="white"/>
<path d="M-6.76215 114.134L83.0294 81.43L0.272316 129.226L-6.76215 114.134Z" fill="white"/>
<path d="M0.272278 129.226L83.0293 81.43L9.82553 142.865L0.272278 129.226Z" fill="white"/>
<path d="M9.82556 142.865L83.0294 81.43L21.6026 154.644L9.82556 142.865Z" fill="white"/>
<path d="M21.6026 154.644L83.0294 81.43L35.2631 164.199L21.6026 154.644Z" fill="white"/>
<path d="M35.2631 164.199L83.0293 81.43L50.3531 171.234L35.2631 164.199Z" fill="white"/>
<path d="M50.3531 171.234L83.0294 81.43L66.4416 175.546L50.3531 171.234Z" fill="white"/>
<path d="M66.4416 175.546L83.0293 81.43V176.999L66.4416 175.546Z" fill="white"/>
<path d="M83.0294 176.999V81.43L99.6171 175.546L83.0294 176.999Z" fill="white"/>
<path d="M99.6171 175.546L83.0294 81.43L115.706 171.234L99.6171 175.546Z" fill="white"/>
<path d="M115.706 171.234L83.0294 81.43L130.796 164.199L115.706 171.234Z" fill="white"/>
<path d="M130.796 164.199L83.0294 81.43L144.433 154.644L130.796 164.199Z" fill="white"/>
<path d="M144.433 154.644L83.0294 81.43L156.21 142.865L144.433 154.644Z" fill="white"/>
<path d="M156.21 142.865L83.0294 81.43L165.764 129.226L156.21 142.865Z" fill="white"/>
<path d="M165.764 129.226L83.0294 81.43L172.798 114.134L165.764 129.226Z" fill="white"/>
<path d="M172.798 114.134L83.0294 81.43L177.11 98.0427L172.798 114.134Z" fill="white"/>
<path d="M177.11 98.0427L83.0294 81.43H178.562L177.11 98.0427Z" fill="white"/>
<path d="M178.562 81.4298H83.0294L177.11 64.8398L178.562 81.4298Z" fill="white"/>
</mask>
<g mask="url(#mask0_963_62)">
<path d="M80.1474 17.6793C114.594 17.6793 142.618 45.7077 142.618 80.136C142.618 114.587 114.594 142.593 80.1474 142.593C45.7013 142.593 17.6769 114.564 17.6769 80.136C17.6769 45.7077 45.7013 17.6793 80.1474 17.6793ZM80.1474 8.44241C40.5502 8.44241 8.46399 40.5332 8.46399 80.136C8.46399 119.739 40.5729 151.83 80.1474 151.83C119.745 151.83 151.831 119.739 151.831 80.136C151.831 40.5559 119.745 8.44241 80.1474 8.44241Z" fill="#30932E"/>
<path d="M80.2836 24.3064C111.144 24.3064 136.242 49.4072 136.242 80.2724C136.242 111.138 111.144 136.238 80.2836 136.238C49.4228 136.238 24.3256 111.138 24.3256 80.2724C24.3256 49.4298 49.4228 24.3064 80.2836 24.3064ZM80.2836 17.7249C45.724 17.7249 17.7223 45.7306 17.7223 80.2724C17.7223 114.814 45.724 142.82 80.2836 142.82C114.821 142.82 142.822 114.814 142.822 80.2724C142.822 45.7306 114.821 17.7249 80.2836 17.7249Z" fill="url(#paint2_linear_963_62)"/>
</g>
<path d="M46.582 72.6914V75.7969H46.4062C44.9297 75.7969 43.7148 76.1523 42.7617 76.8633C41.8164 77.5664 41.2344 78.5469 41.0156 79.8047C41.9062 78.9297 43.0312 78.4922 44.3906 78.4922C45.8672 78.4922 47.043 79.0312 47.918 80.1094C48.793 81.1875 49.2305 82.6016 49.2305 84.3516C49.2305 85.4375 48.9727 86.4336 48.457 87.3398C47.9492 88.2461 47.2344 88.957 46.3125 89.4727C45.3984 89.9805 44.3828 90.2344 43.2656 90.2344C42.0547 90.2344 40.9727 89.9609 40.0195 89.4141C39.0664 88.8594 38.3242 88.0703 37.793 87.0469C37.2617 86.0234 36.9883 84.8438 36.9727 83.5078V81.9258C36.9727 80.168 37.3477 78.5898 38.0977 77.1914C38.8555 75.7852 39.9336 74.6836 41.332 73.8867C42.7305 73.0898 44.2812 72.6914 45.9844 72.6914H46.582ZM43.0195 81.5156C42.4961 81.5156 42.0586 81.6367 41.707 81.8789C41.3555 82.1211 41.0938 82.418 40.9219 82.7695V83.9531C40.9219 86.1094 41.668 87.1875 43.1602 87.1875C43.7617 87.1875 44.2617 86.918 44.6602 86.3789C45.0664 85.8398 45.2695 85.1641 45.2695 84.3516C45.2695 83.5156 45.0625 82.8359 44.6484 82.3125C44.2422 81.7812 43.6992 81.5156 43.0195 81.5156ZM52.0158 81.6562L53.0588 72.9375H63.0314V76.0078H56.2697L55.883 79.3945C56.1642 79.2305 56.5314 79.0859 56.9845 78.9609C57.4455 78.8359 57.8947 78.7734 58.3322 78.7734C60.0275 78.7734 61.3283 79.2773 62.2345 80.2852C63.1486 81.2852 63.6056 82.6914 63.6056 84.5039C63.6056 85.5977 63.3595 86.5898 62.8673 87.4805C62.383 88.3633 61.6994 89.043 60.8166 89.5195C59.9338 89.9961 58.8908 90.2344 57.6877 90.2344C56.6173 90.2344 55.6134 90.0156 54.6759 89.5781C53.7384 89.1328 53.0041 88.5273 52.4728 87.7617C51.9416 86.9883 51.6798 86.1172 51.6877 85.1484H55.6486C55.6877 85.7734 55.8869 86.2695 56.2463 86.6367C56.6056 87.0039 57.0783 87.1875 57.6642 87.1875C58.9923 87.1875 59.6564 86.2031 59.6564 84.2344C59.6564 82.4141 58.8439 81.5039 57.2189 81.5039C56.297 81.5039 55.6095 81.8008 55.1564 82.3945L52.0158 81.6562ZM74.3011 84.1758H67.2581V81.1172H74.3011V84.1758ZM90.0239 75.0469L83.6489 90H79.477L85.8638 75.9844H77.7309V72.9375H90.0239V75.0469ZM104.751 83.0273C104.751 85.332 104.231 87.1094 103.192 88.3594C102.161 89.6094 100.704 90.2344 98.8209 90.2344C96.9225 90.2344 95.4538 89.6055 94.4147 88.3477C93.3756 87.0898 92.8561 85.3164 92.8561 83.0273V79.9102C92.8561 77.6055 93.3717 75.8281 94.403 74.5781C95.442 73.3281 96.9069 72.7031 98.7975 72.7031C100.688 72.7031 102.153 73.332 103.192 74.5898C104.231 75.8477 104.751 77.625 104.751 79.9219V83.0273ZM100.801 79.4062C100.801 78.1797 100.641 77.2656 100.321 76.6641C100.001 76.0547 99.4928 75.75 98.7975 75.75C98.1178 75.75 97.6217 76.0312 97.3092 76.5938C97.0045 77.1562 96.8405 78.0078 96.817 79.1484V83.5078C96.817 84.7812 96.9772 85.7148 97.2975 86.3086C97.6178 86.8945 98.1256 87.1875 98.8209 87.1875C99.4928 87.1875 99.9889 86.9023 100.309 86.332C100.63 85.7539 100.794 84.8516 100.801 83.625V79.4062ZM107.653 76.2188C107.653 75.1641 107.997 74.3125 108.684 73.6641C109.372 73.0156 110.294 72.6914 111.45 72.6914C112.622 72.6914 113.548 73.0156 114.227 73.6641C114.907 74.3047 115.247 75.1758 115.247 76.2773V77.1211C115.247 78.1758 114.907 79.0234 114.227 79.6641C113.548 80.3047 112.63 80.625 111.473 80.625C110.325 80.625 109.399 80.3086 108.696 79.6758C108.001 79.0352 107.653 78.1602 107.653 77.0508V76.2188ZM110.196 77.1211C110.196 77.5273 110.309 77.8594 110.536 78.1172C110.762 78.3672 111.075 78.4922 111.473 78.4922C112.294 78.4922 112.704 77.9688 112.704 76.9219V76.2188C112.704 75.8125 112.595 75.4805 112.376 75.2227C112.157 74.957 111.848 74.8242 111.45 74.8242C111.067 74.8242 110.762 74.9531 110.536 75.2109C110.309 75.4609 110.196 75.8047 110.196 76.2422V77.1211ZM115.762 85.8164C115.762 84.7539 116.106 83.9023 116.794 83.2617C117.489 82.6211 118.411 82.3008 119.559 82.3008C120.723 82.3008 121.649 82.6172 122.337 83.25C123.024 83.8828 123.368 84.7656 123.368 85.8984V86.7188C123.368 87.7812 123.028 88.6328 122.348 89.2734C121.669 89.9141 120.747 90.2344 119.583 90.2344C118.434 90.2344 117.509 89.918 116.805 89.2852C116.11 88.6445 115.762 87.7695 115.762 86.6602V85.8164ZM118.294 86.7188C118.294 87.0859 118.419 87.4102 118.669 87.6914C118.919 87.9648 119.223 88.1016 119.583 88.1016C120.341 88.1016 120.751 87.7422 120.813 87.0234L120.825 85.8164C120.825 85.4023 120.712 85.0703 120.485 84.8203C120.259 84.5625 119.95 84.4336 119.559 84.4336C119.184 84.4336 118.884 84.5547 118.657 84.7969C118.43 85.0312 118.309 85.3516 118.294 85.7578V86.7188ZM112.223 88.7227L110.384 87.7969L118.716 74.4609L120.555 75.3867L112.223 88.7227Z" fill="#30932E"/>
</g>
<defs>
<linearGradient id="paint0_linear_963_62" x1="28.7222" y1="18.5915" x2="131.286" y2="141.398" gradientUnits="userSpaceOnUse">
<stop stop-color="#FFD600"/>
<stop offset="0.4347" stop-color="#DEDEDE"/>
<stop offset="0.7838" stop-color="#F6F6F6"/>
<stop offset="1" stop-color="white"/>
</linearGradient>
<radialGradient id="paint1_radial_963_62" cx="0" cy="0" r="1" gradientUnits="userSpaceOnUse" gradientTransform="translate(80.1405 80.1463) scale(71.6903 71.7005)">
<stop offset="0.8108" stop-color="#FFD600"/>
<stop offset="0.842" stop-color="#565656"/>
<stop offset="0.8594" stop-color="#5E5E5E"/>
<stop offset="0.8733" stop-color="#6C6C6C"/>
<stop offset="0.8855" stop-color="#808080"/>
<stop offset="0.8965" stop-color="#999999"/>
<stop offset="0.9066" stop-color="#B9B9B9"/>
<stop offset="0.9159" stop-color="#DDDDDD"/>
<stop offset="0.9195" stop-color="#EDEDED"/>
<stop offset="0.9345" stop-color="#EAEAEA"/>
<stop offset="0.9475" stop-color="#DFDFDF"/>
<stop offset="0.9597" stop-color="#CDCDCD"/>
<stop offset="0.9715" stop-color="#B4B4B4"/>
<stop offset="0.9829" stop-color="#949494"/>
<stop offset="0.9939" stop-color="#6D6D6D"/>
<stop offset="1" stop-color="#545454"/>
</radialGradient>
<linearGradient id="paint2_linear_963_62" x1="40.184" y1="32.2649" x2="120.378" y2="128.286" gradientUnits="userSpaceOnUse">
<stop stop-color="#FFD600" stop-opacity="0.42"/>
<stop offset="0.2162" stop-color="#FFD600" stop-opacity="0.42"/>
<stop offset="0.5653" stop-color="#FFD600" stop-opacity="0.42"/>
<stop offset="1" stop-color="#B8B8B8"/>
<stop offset="1" stop-color="#FFD600"/>
</linearGradient>
<clipPath id="clip0_963_62">
<rect width="160" height="160" rx="10" fill="white"/>
</clipPath>
</defs>
</svg>
